<?xml version="1.0" encoding="utf-8"?>
<!-- Generator: Adobe Illustrator 27.1.1, SVG Export Plug-In . SVG Version: 6.00 Build 0)  -->
<svg version="1.1" id="Layer_1" xmlns="http://www.w3.org/2000/svg" xmlns:xlink="http://www.w3.org/1999/xlink" x="0px" y="0px"
	 viewBox="0 0 1009.3 387.7" style="enable-background:new 0 0 1009.3 387.7;" xml:space="preserve">
<style type="text/css">
	.st0{fill:#FFE600;}
</style>
<g>
	<g>
		<path class="st0" d="M875.3,215.4c0.2-7.4,2.9-13.2,2.9-21.4s-6.1-17.3-7.7-22.6c-1.7-5.3-4.6-15.9-4.6-15.9s-14.4-0.2-22.1-1.7
			c-6.2-1.2-20.3-13.4-27.4-20.3c-2.3-2.3-2.1-6.1,0.6-8c2.3-1.6,5.6-3.2,10.2-3.9c10.8-1.7,38.7-1.9,38.7-2.9s4.3-10.1,2.9-11.8
			c-2.2-2.6-4,2.7-13.7,3.2c-14,0.6-70.2-19.5-133.3-38.2S571.3,52.4,527.3,52.4S447,68,418.6,86.3c-28.5,18.3-55.3,37.8-55.3,37.8
			s-65.1,4.3-116.2,12.9c-51.1,8.6-88.5,30-91.2,33.9c-2.7,3.9,0.8,17.5-4.3,33.5s-1.2,54.5,0,56.7s6.6,4.7,8.8,9.1
			c2.2,4.5,18.5,5.3,28.5,5.3c0,0,0.9,0,1.7,0c0.7,0,1.2-0.6,1.1-1.2c-0.9-9.6-2-25.7-0.6-35.9c2-15.2,16.3-54.8,69.4-54.8
			s65.9,28.6,70.6,64.4c1.2,9.3,2.1,16.2,2.8,21.3c0.2,1.9,2,3.3,3.9,3.1c0.7-0.1,1.4-0.2,2.1-0.2c28.5-3.6,110.9-5.6,180.6-5.6
			c39.8,0,93.5,0.3,135.6,0.8c2.2,0,4.1-1.7,4.3-3.9c0.9-9.4,2.8-26,6.1-38.5c5-18.4,21.9-44.6,69.1-44.3
			c47.2,0.3,67.7,24.5,71.7,68.5c0.2,2,0.4,3.9,0.5,5.7c0.3,3.4,3.2,5.9,6.5,5.9c7.1-0.1,12.7-0.4,22.3-1.9
			c12.7-1.9,22.3-2.2,25.5-7c3.1-4.8,15.4-20.2,15.9-24C878.6,224.3,875,222.9,875.3,215.4z M179.6,188.1c-1.8,0.1-3.1,0.3-7.7-0.1
			s-12.1,0.9-12.5,0.9s-1.2-0.5-1-4.4c0.1-3.9,0.7-9.4,1.2-10.4s2.5-3.5,11.1-7.6s17.1-5.3,22.1-5.3s17.9,8.6,17.9,8.6
			S181.4,188,179.6,188.1z M736.1,95.9c-2.8,3.5-7.2,8.1-13,11.6c-10.4,6.3-15,5.6-15,5.6s-0.2,0-0.5,0c-1,0.1-3.7,0.2-7.7,0.4
			c-2.2,0.1-4.8,0.3-7.8,0.5c-26.3,1.5-80.6,4.7-129,7.8c-5.8,0.4-11.6,0.8-17.2,1.1c-5.2,0.3-10.4,0.7-15.3,1
			c-15.6,1.1-29.5,2.1-40.1,3c-30.7,2.6-59,4.7-81,5.8c-16.5,0.8-29.4,1.1-37.2,0.5c-1.6-0.1-2.2-2.1-0.9-3
			c6.8-5.4,23.3-18.2,40.3-30.3c9.5-6.8,19.2-13.3,27.4-18.2c27.5-16.3,59.5-25,103.6-24c1.7,0,3.5,0.1,5.3,0.1
			c3.1,0.1,6.3,0.2,9.5,0.4c3,0.1,6.1,0.3,9.2,0.4c32.3,1.7,69.3,5.3,97.7,9.9c3.1,0.5,6.2,1,9.1,1.5c3.2,0.6,6.2,1.2,9.1,1.8
			c0.8,0.2,1.5,0.3,2.3,0.5c24.7,5.4,41.7,12.5,49.6,16.2C737.2,89.9,738,93.5,736.1,95.9z"/>
	</g>
	<path class="st0" d="M395.1,126.3c0.5-6.9,2.7-19.1,18.4-19.1c15.7,0,10.5,14.7,8.6,16.6s-13,4-18.1,4.6
		C398.9,129,394.8,130.4,395.1,126.3z"/>
</g>
</svg>
