<?xml version="1.0" encoding="utf-8"?>
<!-- Generator: Adobe Illustrator 27.1.1, SVG Export Plug-In . SVG Version: 6.00 Build 0)  -->
<svg version="1.1" id="Layer_1" xmlns="http://www.w3.org/2000/svg" xmlns:xlink="http://www.w3.org/1999/xlink" x="0px" y="0px"
	 viewBox="0 0 1009.3 387.7" style="enable-background:new 0 0 1009.3 387.7;" xml:space="preserve">
<style type="text/css">
	.st0{opacity:0.6;}
	.st1{opacity:0;}
	.st2{opacity:4.761905e-02;}
	.st3{opacity:9.523810e-02;}
	.st4{opacity:0.1429;}
	.st5{opacity:0.1905;}
	.st6{opacity:0.2381;}
	.st7{opacity:0.2857;}
	.st8{opacity:0.3333;}
	.st9{opacity:0.381;}
	.st10{opacity:0.4286;}
	.st11{opacity:0.4762;}
	.st12{opacity:0.5238;}
	.st13{opacity:0.5714;}
	.st14{opacity:0.619;}
	.st15{opacity:0.6667;}
	.st16{opacity:0.7143;}
	.st17{opacity:0.7619;}
	.st18{opacity:0.8095;}
	.st19{opacity:0.8571;}
	.st20{opacity:0.9048;}
	.st21{opacity:0.9524;}
	.st22{opacity:0.4;}
</style>
<g>
	<g class="st0">
		<g class="st0">
			<path class="st1" d="M961.1,308c0,26.9-202.9,31.7-453.3,31.7S54.6,334.9,54.6,308s202.9-48.6,453.3-48.6S961.1,281.2,961.1,308z
				"/>
			<path class="st2" d="M955.7,307.9c0,26.1-200.5,31.2-447.8,31.2S60,334.1,60,307.9c0-26.1,200.5-47.3,447.8-47.3
				S955.7,281.8,955.7,307.9z"/>
			<path class="st3" d="M950.3,307.8c0,25.4-198.1,30.8-442.4,30.8s-442.4-5.3-442.4-30.8c0-25.4,198.1-46.1,442.4-46.1
				S950.3,282.4,950.3,307.8z"/>
			<path class="st4" d="M944.8,307.7c0,24.7-195.6,30.3-437,30.3s-437-5.5-437-30.3c0-24.7,195.6-44.8,437-44.8
				S944.8,283,944.8,307.7z"/>
			<path class="st5" d="M939.4,307.6c0,24-193.2,29.8-431.6,29.8s-431.6-5.8-431.6-29.8c0-24,193.2-43.5,431.6-43.5
				S939.4,283.6,939.4,307.6z"/>
			<path class="st6" d="M934,307.5c0,23.3-190.8,29.3-426.1,29.3s-426.1-6-426.1-29.3c0-23.3,190.8-42.2,426.1-42.2
				S934,284.2,934,307.5z"/>
			<path class="st7" d="M928.6,307.4c0,22.6-188.4,28.8-420.7,28.8S87.1,330,87.1,307.4s188.4-40.9,420.7-40.9
				S928.6,284.8,928.6,307.4z"/>
			<path class="st8" d="M923.1,307.3c0,21.9-185.9,28.3-415.3,28.3s-415.3-6.5-415.3-28.3s185.9-39.6,415.3-39.6
				S923.1,285.4,923.1,307.3z"/>
			<path class="st9" d="M917.7,307.2c0,21.2-183.5,27.9-409.9,27.9S98,328.3,98,307.2s183.5-38.3,409.9-38.3S917.7,286,917.7,307.2z
				"/>
			<path class="st10" d="M912.3,307.1c0,20.4-181.1,27.4-404.4,27.4s-404.4-6.9-404.4-27.4s181.1-37,404.4-37
				S912.3,286.6,912.3,307.1z"/>
			<path class="st11" d="M906.9,307c0,19.7-178.6,26.9-399,26.9s-399-7.1-399-26.9s178.6-35.7,399-35.7S906.9,287.2,906.9,307z"/>
			<path class="st12" d="M901.4,306.9c0,19-176.2,26.4-393.6,26.4s-393.6-7.4-393.6-26.4s176.2-34.4,393.6-34.4
				S901.4,287.8,901.4,306.9z"/>
			<path class="st13" d="M896,306.8c0,18.3-173.8,25.9-388.2,25.9s-388.2-7.6-388.2-25.9c0-18.3,173.8-33.2,388.2-33.2
				S896,288.5,896,306.8z"/>
			<path class="st14" d="M890.6,306.7c0,17.6-171.4,25.4-382.8,25.4s-382.8-7.8-382.8-25.4c0-17.6,171.4-31.9,382.8-31.9
				S890.6,289.1,890.6,306.7z"/>
			<path class="st15" d="M885.2,306.6c0,16.9-168.9,24.9-377.3,24.9s-377.3-8.1-377.3-24.9c0-16.9,168.9-30.6,377.3-30.6
				S885.2,289.7,885.2,306.6z"/>
			<path class="st16" d="M879.8,306.5c0,16.2-166.5,24.5-371.9,24.5s-371.9-8.3-371.9-24.5c0-16.2,166.5-29.3,371.9-29.3
				S879.8,290.3,879.8,306.5z"/>
			<path class="st17" d="M874.3,306.4c0,15.5-164.1,24-366.5,24s-366.5-8.5-366.5-24c0-15.5,164.1-28,366.5-28
				S874.3,290.9,874.3,306.4z"/>
			<path class="st18" d="M868.9,306.3c0,14.8-161.7,23.5-361.1,23.5s-361.1-8.7-361.1-23.5c0-14.8,161.7-26.7,361.1-26.7
				S868.9,291.5,868.9,306.3z"/>
			<path class="st19" d="M863.5,306.2c0,14-159.2,23-355.6,23s-355.6-9-355.6-23s159.2-25.4,355.6-25.4S863.5,292.1,863.5,306.2z"/>
			<path class="st20" d="M858.1,306c0,13.3-156.8,22.5-350.2,22.5s-350.2-9.2-350.2-22.5s156.8-24.1,350.2-24.1
				S858.1,292.7,858.1,306z"/>
			<path class="st21" d="M852.6,305.9c0,12.6-154.4,22-344.8,22s-344.8-9.4-344.8-22c0-12.6,154.4-22.8,344.8-22.8
				S852.6,293.3,852.6,305.9z"/>
			<ellipse cx="507.8" cy="305.8" rx="339.4" ry="21.6"/>
		</g>
	</g>
	<g class="st22">
		<ellipse class="st1" cx="736.1" cy="296.2" rx="125.8" ry="28.7"/>
		<ellipse class="st2" cx="736.1" cy="296.9" rx="121.5" ry="28"/>
		<ellipse class="st3" cx="736.1" cy="297.5" rx="117.2" ry="27.3"/>
		<ellipse class="st4" cx="736.1" cy="298.2" rx="112.9" ry="26.6"/>
		<ellipse class="st5" cx="736.1" cy="298.8" rx="108.6" ry="25.9"/>
		<ellipse class="st6" cx="736.1" cy="299.5" rx="104.3" ry="25.2"/>
		<ellipse class="st7" cx="736.1" cy="300.1" rx="100" ry="24.5"/>
		<ellipse class="st8" cx="736.1" cy="300.8" rx="95.7" ry="23.7"/>
		<ellipse class="st9" cx="736.1" cy="301.4" rx="91.4" ry="23"/>
		<ellipse class="st10" cx="736.1" cy="302.1" rx="87.1" ry="22.3"/>
		<ellipse class="st11" cx="736.1" cy="302.8" rx="82.8" ry="21.6"/>
		<ellipse class="st12" cx="736.1" cy="303.4" rx="78.5" ry="20.9"/>
		<ellipse class="st13" cx="736.1" cy="304.1" rx="74.2" ry="20.2"/>
		<ellipse class="st14" cx="736.1" cy="304.7" rx="69.9" ry="19.5"/>
		<ellipse class="st15" cx="736.1" cy="305.4" rx="65.6" ry="18.7"/>
		<ellipse class="st16" cx="736.1" cy="306" rx="61.3" ry="18"/>
		<ellipse class="st17" cx="736.1" cy="306.7" rx="57" ry="17.3"/>
		<ellipse class="st18" cx="736.1" cy="307.3" rx="52.7" ry="16.6"/>
		<ellipse class="st19" cx="736.1" cy="308" rx="48.4" ry="15.9"/>
		<ellipse class="st20" cx="736.1" cy="308.6" rx="44.1" ry="15.2"/>
		<ellipse class="st21" cx="736.1" cy="309.3" rx="39.8" ry="14.4"/>
		<ellipse cx="736.1" cy="309.9" rx="35.5" ry="13.7"/>
	</g>
	<g class="st22">
		<ellipse class="st1" cx="261.6" cy="291.9" rx="125.8" ry="28.7"/>
		<ellipse class="st2" cx="261.6" cy="292.6" rx="121.5" ry="28"/>
		<ellipse class="st3" cx="261.6" cy="293.2" rx="117.2" ry="27.3"/>
		<ellipse class="st4" cx="261.6" cy="293.9" rx="112.9" ry="26.6"/>
		<ellipse class="st5" cx="261.6" cy="294.5" rx="108.6" ry="25.9"/>
		<ellipse class="st6" cx="261.6" cy="295.2" rx="104.3" ry="25.2"/>
		<ellipse class="st7" cx="261.6" cy="295.8" rx="100" ry="24.5"/>
		<ellipse class="st8" cx="261.6" cy="296.5" rx="95.7" ry="23.7"/>
		<ellipse class="st9" cx="261.6" cy="297.1" rx="91.4" ry="23"/>
		<ellipse class="st10" cx="261.6" cy="297.8" rx="87.1" ry="22.3"/>
		<ellipse class="st11" cx="261.6" cy="298.4" rx="82.8" ry="21.6"/>
		<ellipse class="st12" cx="261.6" cy="299.1" rx="78.5" ry="20.9"/>
		<ellipse class="st13" cx="261.6" cy="299.7" rx="74.2" ry="20.2"/>
		<ellipse class="st14" cx="261.6" cy="300.4" rx="69.9" ry="19.5"/>
		<ellipse class="st15" cx="261.6" cy="301.1" rx="65.6" ry="18.7"/>
		<ellipse class="st16" cx="261.6" cy="301.7" rx="61.3" ry="18"/>
		<ellipse class="st17" cx="261.6" cy="302.4" rx="57" ry="17.3"/>
		<ellipse class="st18" cx="261.6" cy="303" rx="52.7" ry="16.6"/>
		<ellipse class="st19" cx="261.6" cy="303.7" rx="48.4" ry="15.9"/>
		<ellipse class="st20" cx="261.6" cy="304.3" rx="44.1" ry="15.2"/>
		<ellipse class="st21" cx="261.6" cy="305" rx="39.8" ry="14.4"/>
		<ellipse cx="261.6" cy="305.6" rx="35.5" ry="13.7"/>
	</g>
</g>
</svg>
