<?xml version="1.0" encoding="utf-8"?>
<!-- Generator: Adobe Illustrator 27.1.1, SVG Export Plug-In . SVG Version: 6.00 Build 0)  -->
<svg version="1.1" id="Layer_1" xmlns="http://www.w3.org/2000/svg" xmlns:xlink="http://www.w3.org/1999/xlink" x="0px" y="0px"
	 viewBox="0 0 1009.3 387.7" style="enable-background:new 0 0 1009.3 387.7;" xml:space="preserve">
<style type="text/css">
	.st0{opacity:0.6;enable-background:new    ;}
	.st1{opacity:0.5;fill:#E25959;enable-background:new    ;}
	.st2{opacity:0.5;fill:#EDABAB;enable-background:new    ;}
	.st3{fill:#191919;}
	.st4{fill:#BCBCBC;}
	.st5{opacity:0.75;}
	.st6{clip-path:url(#SVGID_00000092436430350367856260000015604733748314836901_);}
	.st7{fill:#FFFFFF;}
	.st8{clip-path:url(#SVGID_00000031184815388555835270000006524531172336756865_);}
	.st9{fill:#494949;stroke:#494949;stroke-miterlimit:10;}
	.st10{clip-path:url(#SVGID_00000101800107801736476820000013067467282320735130_);fill:#FFFFFF;}
	.st11{clip-path:url(#SVGID_00000100374980498249209040000008446833956376308375_);fill:#515151;}
	.st12{clip-path:url(#SVGID_00000067937098420740027770000015944328208314344367_);fill:#E2E2E2;}
	
		.st13{opacity:0.25;clip-path:url(#SVGID_00000137127611870514916290000018344119363217314471_);fill:#FFFFFF;enable-background:new    ;}
	.st14{fill:none;stroke:#EDEDED;stroke-linecap:round;stroke-miterlimit:10;}
	.st15{fill:#CCCCCC;}
	.st16{fill:#575E63;}
	.st17{fill:#494949;}
	.st18{fill:#303030;}
	.st19{fill:#DDDDDD;}
	.st20{fill:none;stroke:#FF0000;stroke-miterlimit:10;}
	.st21{fill:none;stroke:#232323;stroke-linecap:round;stroke-miterlimit:10;}
</style>
<g>
	<g>
		<path class="st0" d="M348.7,125.3c0,0,88.9-50.7,99.4-54.9s20.2-6.8,20.2-6.8l-105,65.5L348.7,125.3z"/>
		<g>
			<g>
				<g>
					
						<image style="overflow:visible;enable-background:new    ;" width="508" height="381" xlink:href="9849B88AB4AD824A.png"  transform="matrix(0.1374 0 0 0.1374 798.3811 118.2743)">
					</image>
				</g>
			</g>
			<path class="st1" d="M829.5,134.1c0,0,8.9-0.3,18.6,0c9.7,0.3,14.7,0.9,14.7,0.9s0.9,3.2,2,5.8c0,0-1,0.6-2.5,0.8
				s-3.9,0.2-2.8,0.9c1.1,0.7,2.3,1,2.3,1.9s0.1,3.2,0.5,4c0.5,0.8-0.4,1.6,0.6,1.8s1.6,0.5,1,0.9s1.4,0.6,1,1s-10.5,0-13.7-1.2
				s-11.4-5.1-16.3-10.6C829.7,135,829.5,134.1,829.5,134.1z"/>
			<path class="st1" d="M862.3,130.7c-0.7-1.1-5.1-7.8-5.1-7.8s-19.8,1-29.5,2.9c0,0,2.3,1.2,6.1,1.4c3.8,0.3,4.7,0.3,4.7,0.3
				s0.2,2.5,0.6,3.1c0.4,0.6,0.4,1.2,0.4,1.2l23.2,0.6C862.7,132.5,863,131.8,862.3,130.7z M861.8,132c-0.1,0.1-10.1-0.2-12.8-0.3
				c-2.7,0-5.8,0-7.2-0.7c-1.3-0.6-1.8-1.9-1.8-3c0,0,10.5,0.6,14.1,0.7c3.6,0.1,5.6,0,5.6,0S862,131.9,861.8,132z"/>
			<path class="st2" d="M848.7,138.1c0.8,8.7-1.8,18.4-1.8,18.4l18.9-0.8c0.1,0,0.1-0.1,0.1-0.1s3-12.8,1.6-21
				c-1.5-8.2-1.6-15.8-1.6-15.8h-0.1c-1,0-9.5,0-20.6,0C845.2,118.9,847.9,129.5,848.7,138.1z"/>
		</g>
		<circle class="st3" cx="310.5" cy="241" r="48.3"/>
		<circle class="st3" cx="684.6" cy="238.4" r="48.3"/>
		<polygon class="st3" points="185.1,265 345.4,265 735.7,265 837.9,242.3 837.9,175.2 180.2,175.2 		"/>
		<path class="st4" d="M875.3,215.4c0.2-7.4,2.9-13.2,2.9-21.4s-6.1-17.3-7.7-22.6c-1.7-5.3-4.6-15.9-4.6-15.9s-14.4-0.2-22.1-1.7
			c-6.2-1.2-20.3-13.4-27.4-20.3c-2.3-2.3-2.1-6.1,0.6-8c2.3-1.6,5.6-3.2,10.2-3.9c10.8-1.7,38.7-1.9,38.7-2.9s4.3-10.1,2.9-11.8
			c-2.2-2.6-4,2.7-13.7,3.2c-14,0.6-70.2-19.5-133.3-38.2S571.4,52.5,527.3,52.5c-44,0-80.3,15.6-108.7,33.9s-55.3,37.8-55.3,37.8
			s-65.1,4.3-116.2,12.9c-51.1,8.6-88.5,30-91.2,33.9c-2.7,3.9,0.8,17.5-4.3,33.5s-1.2,54.5,0,56.7s6.6,4.7,8.8,9.1
			c2.2,4.5,18.5,5.3,28.5,5.3c0,0,0.9,0,1.7,0c0.7,0,1.2-0.6,1.1-1.2c-0.9-9.6-2-25.7-0.6-35.9c2-15.2,16.3-54.8,69.4-54.8
			s65.9,28.6,70.6,64.4c1.2,9.3,2.1,16.2,2.8,21.3c0.2,1.9,2,3.3,3.9,3.1c0.7-0.1,1.4-0.2,2.1-0.2c28.5-3.6,110.9-5.6,180.6-5.6
			c39.8,0,93.5,0.3,135.6,0.8c2.2,0,4.1-1.7,4.3-3.9c0.9-9.4,2.8-26,6.1-38.5c5-18.4,21.9-44.6,69.1-44.3
			c47.2,0.3,67.7,24.5,71.7,68.5c0.2,2,0.4,3.9,0.5,5.7c0.3,3.4,3.2,5.9,6.5,5.9c7.1-0.1,12.7-0.4,22.3-1.9
			c12.7-1.9,22.3-2.2,25.5-7c3.1-4.8,15.4-20.2,15.9-24C878.6,224.3,875,222.9,875.3,215.4z M736.1,95.9c-2.8,3.5-7.2,8.1-13,11.6
			c-10.4,6.3-15,5.6-15,5.6s-0.2,0-0.5,0c-1,0.1-3.7,0.2-7.7,0.4c-2.2,0.1-4.8,0.3-7.8,0.5c-26.3,1.5-80.6,4.7-129,7.8
			c-5.8,0.4-11.6,0.8-17.2,1.1c-5.2,0.3-10.4,0.7-15.3,1c-15.6,1.1-29.5,2.1-40.1,3c-30.7,2.6-59,4.7-81,5.8
			c-16.5,0.8-29.4,1.1-37.2,0.5c-1.6-0.1-2.2-2.1-0.9-3c6.8-5.4,23.3-18.2,40.3-30.3c9.5-6.8,19.2-13.3,27.4-18.2
			c27.5-16.3,59.5-25,103.6-24c1.7,0,3.5,0.1,5.3,0.1c3.1,0.1,6.3,0.2,9.5,0.4c3,0.1,6.1,0.3,9.2,0.4c32.3,1.7,69.3,5.3,97.7,9.9
			c3.1,0.5,6.2,1,9.1,1.5c3.2,0.6,6.2,1.2,9.1,1.8c0.8,0.2,1.5,0.3,2.3,0.5c24.7,5.4,41.7,12.5,49.6,16.2
			C737.2,89.9,738,93.5,736.1,95.9z"/>
		<g class="st5">
			<g>
				<defs>
					<path id="SVGID_1_" d="M875.3,215.4c0.2-7.4,2.9-13.2,2.9-21.4s-6.1-17.3-7.7-22.6c-1.7-5.3-4.6-15.9-4.6-15.9
						s-14.4-0.2-22.1-1.7c-6.2-1.2-20.3-13.4-27.4-20.3c-2.3-2.3-2.1-6.1,0.6-8c2.3-1.6,5.6-3.2,10.2-3.9
						c10.8-1.7,38.7-1.9,38.7-2.9s4.3-10.1,2.9-11.8c-2.2-2.6-4,2.7-13.7,3.2c-14,0.6-70.2-19.5-133.3-38.2S571.4,52.5,527.3,52.5
						c-44,0-80.3,15.6-108.7,33.9s-55.3,37.8-55.3,37.8s-65.1,4.3-116.2,12.9c-51.1,8.6-88.5,30-91.2,33.9
						c-2.7,3.9,0.8,17.5-4.3,33.5s-1.2,54.5,0,56.7s6.6,4.7,8.8,9.1c2.2,4.5,18.5,5.3,28.5,5.3c0,0,0.9,0,1.7,0
						c0.7,0,1.2-0.6,1.1-1.2c-0.9-9.6-2-25.7-0.6-35.9c2-15.2,16.3-54.8,69.4-54.8s65.9,28.6,70.6,64.4c1.2,9.3,2.1,16.2,2.8,21.3
						c0.2,1.9,2,3.3,3.9,3.1c0.7-0.1,1.4-0.2,2.1-0.2c28.5-3.6,110.9-5.6,180.6-5.6c39.8,0,93.5,0.3,135.6,0.8
						c2.2,0,4.1-1.7,4.3-3.9c0.9-9.4,2.8-26,6.1-38.5c5-18.4,21.9-44.6,69.1-44.3c47.2,0.3,67.7,24.5,71.7,68.5
						c0.2,2,0.4,3.9,0.5,5.7c0.3,3.4,3.2,5.9,6.5,5.9c7.1-0.1,12.7-0.4,22.3-1.9c12.7-1.9,22.3-2.2,25.5-7
						c3.1-4.8,15.4-20.2,15.9-24C878.6,224.3,875,222.9,875.3,215.4z"/>
				</defs>
				<clipPath id="SVGID_00000085228241044838634150000004042951161248844974_">
					<use xlink:href="#SVGID_1_"  style="overflow:visible;"/>
				</clipPath>
				<g style="clip-path:url(#SVGID_00000085228241044838634150000004042951161248844974_);">
					<path class="st7" d="M736.1,95.9c-2.8,3.5-7.2,8.1-13,11.6c-10.4,6.3-15,5.6-15,5.6s-0.2,0-0.5,0c-1,0.1-3.7,0.2-7.7,0.4
						c-2.2,0.1-4.8,0.3-7.8,0.5c-26.3,1.5-80.6,4.7-129,7.8c-5.8,0.4-11.6,0.8-17.2,1.1c-5.2,0.3-10.4,0.7-15.3,1
						c-15.6,1.1-29.5,2.1-40.1,3c-30.7,2.6-59,4.7-81,5.8c-16.5,0.8-29.4,1.1-37.2,0.5c-1.6-0.1-2.2-2.1-0.9-3
						c6.8-5.4,23.3-18.2,40.3-30.3c9.5-6.8,19.2-13.3,27.4-18.2c27.5-16.3,59.5-25,103.6-24c1.7,0,3.5,0.1,5.3,0.1
						c3.1,0.1,6.3,0.2,9.5,0.4c3,0.1,6.1,0.3,9.2,0.4c32.3,1.7,69.3,5.3,97.7,9.9c3.1,0.5,6.2,1,9.1,1.5c3.2,0.6,6.2,1.2,9.1,1.8
						c0.8,0.2,1.5,0.3,2.3,0.5c24.7,5.4,41.7,12.5,49.6,16.2C737.2,89.9,738,93.5,736.1,95.9z M868.8,107.1c-2.2-2.6-4,2.7-13.7,3.2
						c-14,0.6-70.2-19.5-133.3-38.2S571.4,52.5,527.3,52.5c-44,0-80.3,15.6-108.7,33.9s-55.3,37.8-55.3,37.8s-65.1,4.3-116.2,12.9
						c-51.1,8.6-88.5,30-91.2,33.9c-2.7,3.9,0.8,17.5-4.3,33.5c-3.7,11.5-2.7,34.8-1.4,47.7c4.1,1.6,7.5,4.1,8.1,6.6
						c0.8,3.4,4.1,4.2,7.2,3.2l1.8-0.6c0.8-0.2,1.4-0.9,1.4-1.8c0.2-2.9,0.7-9.4,0.9-11.2c0.2-2.4,6.2-2.6,7.2-5.4
						c1-2.8,0.5-17.9,8.8-31.5c8.3-13.7,31.7-36.5,61-40.1s51.7,2.3,70.7,15.7c3.9,2.7,10,12.5,10.9,9.6c1-2.9,2.1-4.6,47.8-7.8
						s130.5-15.3,158.4-16.3c27.9-1,98.5-3.7,105.9-3.7s21.3-11,30.3-16.3c9-5.2,25.5-16.8,83.5-22.5c30.4-3,51.2-4.6,64.1-5.3
						c2.2-1.3,5.1-2.5,9-3.1c10.8-1.7,38.7-1.9,38.7-2.9C865.9,117.9,870.2,108.7,868.8,107.1z"/>
				</g>
			</g>
			<g>
				<defs>
					<path id="SVGID_00000000901740056449184150000002182135357214576057_" d="M875.3,215.4c0.2-7.4,2.9-13.2,2.9-21.4
						s-6.1-17.3-7.7-22.6c-1.7-5.3-4.6-15.9-4.6-15.9s-14.4-0.2-22.1-1.7c-6.2-1.2-20.3-13.4-27.4-20.3c-2.3-2.3-2.1-6.1,0.6-8
						c2.3-1.6,5.6-3.2,10.2-3.9c10.8-1.7,38.7-1.9,38.7-2.9s4.3-10.1,2.9-11.8c-2.2-2.6-4,2.7-13.7,3.2
						c-14,0.6-70.2-19.5-133.3-38.2S571.4,52.5,527.3,52.5c-44,0-80.3,15.6-108.7,33.9s-55.3,37.8-55.3,37.8s-65.1,4.3-116.2,12.9
						c-51.1,8.6-88.5,30-91.2,33.9c-2.7,3.9,0.8,17.5-4.3,33.5s-1.2,54.5,0,56.7s6.6,4.7,8.8,9.1c2.2,4.5,18.5,5.3,28.5,5.3
						c0,0,0.9,0,1.7,0c0.7,0,1.2-0.6,1.1-1.2c-0.9-9.6-2-25.7-0.6-35.9c2-15.2,16.3-54.8,69.4-54.8s65.9,28.6,70.6,64.4
						c1.2,9.3,2.1,16.2,2.8,21.3c0.2,1.9,2,3.3,3.9,3.1c0.7-0.1,1.4-0.2,2.1-0.2c28.5-3.6,110.9-5.6,180.6-5.6
						c39.8,0,93.5,0.3,135.6,0.8c2.2,0,4.1-1.7,4.3-3.9c0.9-9.4,2.8-26,6.1-38.5c5-18.4,21.9-44.6,69.1-44.3
						c47.2,0.3,67.7,24.5,71.7,68.5c0.2,2,0.4,3.9,0.5,5.7c0.3,3.4,3.2,5.9,6.5,5.9c7.1-0.1,12.7-0.4,22.3-1.9
						c12.7-1.9,22.3-2.2,25.5-7c3.1-4.8,15.4-20.2,15.9-24C878.6,224.3,875,222.9,875.3,215.4z"/>
				</defs>
				<clipPath id="SVGID_00000159430909942093093500000009437638969432377535_">
					<use xlink:href="#SVGID_00000000901740056449184150000002182135357214576057_"  style="overflow:visible;"/>
				</clipPath>
				<g style="clip-path:url(#SVGID_00000159430909942093093500000009437638969432377535_);">
					<path class="st7" d="M875.3,215.4c0.2-7.4,2.9-13.2,2.9-21.4s-6.1-17.3-7.7-22.6c-1.7-5.3-4.6-15.9-4.6-15.9
						s-14.4-0.2-22.1-1.7c-2.6-0.5-6.6-2.9-10.9-6.1c-3.9-0.3-7.1-0.1-4.6,1.9c5.1,4.2,16.2,15.1,25.1,25.5c8.9,10.4,9,12.3,8.5,24
						c-0.6,11.7-1.2,24.7,0.2,27.6c0.9,2,7.9,6.2,12.1,8.5c2.1-3.2,3.7-5.9,3.9-7.3C878.6,224.3,875,222.9,875.3,215.4z"/>
				</g>
			</g>
		</g>
		<path class="st0" d="M542.5,63.5c-2.3-0.1-4.6-0.1-6.9-0.1c-37.2,0-67,7.4-93.7,23.3c-9.2,5.5-20.2,13-30.8,20.7l-1.3,19.6
			c19.6-1,45.9-2.9,80.2-5.7c10.9-0.9,25.5-2,41.8-3.1c4.4-19.8,10.6-41.7,14.4-54.5C544.9,63.6,543.7,63.6,542.5,63.5z"/>
		<path class="st0" d="M707.8,107.3c0,0,5.5-0.7,12.3-4.8c3.1-1.9,5.7-4.1,7.9-6.3c1.4-1.4,1-3.9-0.9-4.7c-8.4-3.6-22-8.7-40.2-12.9
			c4.7,7.5,10.9,17.6,17.5,28.8C706.5,107.4,707.7,107.3,707.8,107.3z"/>
		<path class="st0" d="M566.1,64.5c-0.8,8.4-1.7,19.3-2.1,31.2c-0.3,8.2-0.6,15-0.7,20.4c46.5-3,98.5-6.1,125.6-7.7
			c-7.9-13.5-15.3-25.3-20.3-33.3C639.1,70.1,599.2,66.3,566.1,64.5z"/>
		<path class="st3" d="M352.8,187.1c-7.6,0-16.3,0.5-16.3,6.1c0,5.5,11.4,29,13.7,33s10.6,3.9,10.6,3.9s-10.1-32.4-9.7-36.6
			C351.5,189.2,354.9,187.1,352.8,187.1z"/>
		<g class="st5">
			<path class="st7" d="M488.5,249.3c55.2-1.4,103.5-1.3,122.4,0s27.1,3.5,21.6,4.3s-143,0.7-188.1,1c-45.1,0.4-103.7,0.5-83.8-0.9
				C380.4,252.3,444.2,250.5,488.5,249.3z"/>
		</g>
		<path class="st9" d="M734.4,88.6c-7.9-3.7-24.8-10.8-49.6-16.2c-0.7-0.2-1.5-0.3-2.3-0.5c-2.9-0.6-5.9-1.2-9.1-1.8
			c-2.9-0.5-6-1-9.1-1.5c-28.5-4.6-65.4-8.1-97.7-9.9c-3.1-0.2-6.2-0.3-9.2-0.4c-3.2-0.1-6.4-0.3-9.5-0.4c-1.8-0.1-3.5-0.1-5.3-0.1
			c-44.2-1-76.2,7.6-103.6,24c-8.2,4.9-17.9,11.4-27.4,18.2c-17,12.1-33.5,24.9-40.3,30.3c-1.2,1-0.6,2.9,0.9,3
			c7.8,0.6,20.8,0.3,37.2-0.5c22-1.1,50.3-3.2,81-5.8c10.6-0.9,24.4-1.9,40.1-3c4.9-0.3,10.1-0.7,15.3-1c5.6-0.4,11.4-0.8,17.2-1.1
			c48.4-3.1,102.7-6.3,129-7.8c3-0.2,5.6-0.3,7.8-0.5c4-0.2,6.7-0.4,7.7-0.4c0.3,0,0.5,0,0.5,0s4.5,0.7,15-5.6
			c5.8-3.5,10.2-8.2,13-11.6C738,93.5,737.2,89.9,734.4,88.6z M728,96.3c-2.1,2.2-4.8,4.4-7.9,6.3c-6.8,4.1-12.3,4.8-12.3,4.8
			c-0.1,0-1.3,0.1-3.4,0.2c-1.9,0.1-4.5,0.3-7.7,0.4c-2.3,0.1-4.9,0.3-7.8,0.5c-27.2,1.6-79.1,4.6-125.6,7.7
			c-5.5,0.4-11,0.7-16.3,1.1c-5.2,0.3-10.2,0.7-15.1,1c-16.4,1.1-30.9,2.2-41.8,3.1c-34.3,2.9-60.6,4.7-80.2,5.7l1.3-19.6
			c10.6-7.6,21.6-15.2,30.8-20.7c26.7-15.9,56.4-23.3,93.7-23.3c2.3,0,4.6,0,6.9,0.1c1.2,0,2.5,0.1,3.7,0.1
			c3.3,0.1,6.7,0.2,10.2,0.4c3.1,0.1,6.4,0.3,9.7,0.5c33.2,1.8,73,5.6,102.5,10.6c3.2,0.5,6.2,1.1,9.2,1.7c2,0.4,4,0.8,5.9,1.2
			c1.1,0.2,2.2,0.5,3.3,0.7c18.3,4.2,31.9,9.3,40.2,12.9C729,92.4,729.4,94.9,728,96.3z"/>
		<path class="st9" d="M546.2,63.6c-3.8,12.8-10,34.7-14.4,54.5c4.9-0.3,9.9-0.7,15.1-1c2.8-15.8,6.8-38.2,9.5-53.1
			C552.9,63.9,549.5,63.7,546.2,63.6z"/>
		<path class="st9" d="M566.1,64.5c-3.3-0.2-6.5-0.3-9.7-0.5c-2.7,15-6.7,37.3-9.5,53.1c5.3-0.4,10.8-0.7,16.3-1.1
			c0.2-5.5,0.4-12.2,0.7-20.4C564.4,83.7,565.3,72.8,566.1,64.5z"/>
		<path class="st9" d="M677.7,76.8c4.9,7.8,11.7,18.8,19,31.2c3.2-0.2,5.8-0.3,7.7-0.4c-6.6-11.2-12.7-21.2-17.5-28.8
			c-1.1-0.2-2.2-0.5-3.3-0.7C681.7,77.6,679.7,77.2,677.7,76.8z"/>
		<path class="st9" d="M668.5,75.1c5.1,8,12.4,19.8,20.3,33.3c2.9-0.2,5.5-0.3,7.8-0.5c-7.3-12.4-14-23.4-19-31.2
			C674.8,76.2,671.7,75.7,668.5,75.1z"/>
		<path class="st7" d="M395.1,126.3c0.5-6.9,2.7-19.1,18.4-19.1c15.7,0,10.5,14.7,8.6,16.6s-13,4-18.1,4.6
			C398.9,129,394.8,130.4,395.1,126.3z"/>
		<path class="st3" d="M154.3,219.8c0,0,3.5-4.2,7.6,0s5.1,6.2,5.9,11.5c0.8,5.3,1.2,17.4,1.2,24.4c0,0-7.3,0.9-8.8-6.5
			c-1.5-7.4-1.6-12.4-1.6-12.4s-5.4-3.7-5.4-8S153,221.8,154.3,219.8z"/>
		<g>
			<g>
				<defs>
					<path id="SVGID_00000100366980456791612980000018321517071665339578_" d="M210.7,169.9c0,0-12.9-8.6-17.9-8.6
						s-13.5,1.2-22.1,5.3c-8.6,4-10.6,6.5-11.1,7.6c-0.5,1-1,6.5-1.2,10.4c-0.1,3.9,0.7,4.4,1,4.4s8-1.3,12.5-0.9
						c4.6,0.4,5.9,0.3,7.7,0.1S210.7,169.9,210.7,169.9z"/>
				</defs>
				<clipPath id="SVGID_00000142170947933003592140000006244833082293436083_">
					<use xlink:href="#SVGID_00000100366980456791612980000018321517071665339578_"  style="overflow:visible;"/>
				</clipPath>
				<path style="clip-path:url(#SVGID_00000142170947933003592140000006244833082293436083_);fill:#FFFFFF;" d="M210.7,169.9
					c0,0-12.9-8.6-17.9-8.6s-13.5,1.2-22.1,5.3c-8.6,4-10.6,6.5-11.1,7.6c-0.5,1-1,6.5-1.2,10.4c-0.1,3.9,0.7,4.4,1,4.4
					s8-1.3,12.5-0.9c4.6,0.4,5.9,0.3,7.7,0.1S210.7,169.9,210.7,169.9z"/>
			</g>
			<g>
				<defs>
					<path id="SVGID_00000163762135969881740120000008526561875242573223_" d="M210.7,169.9c0,0-12.9-8.6-17.9-8.6
						s-13.5,1.2-22.1,5.3c-8.6,4-10.6,6.5-11.1,7.6c-0.5,1-1,6.5-1.2,10.4c-0.1,3.9,0.7,4.4,1,4.4s8-1.3,12.5-0.9
						c4.6,0.4,5.9,0.3,7.7,0.1S210.7,169.9,210.7,169.9z"/>
				</defs>
				<clipPath id="SVGID_00000152977241627371558350000011353917510028820150_">
					<use xlink:href="#SVGID_00000163762135969881740120000008526561875242573223_"  style="overflow:visible;"/>
				</clipPath>
				<path style="clip-path:url(#SVGID_00000152977241627371558350000011353917510028820150_);fill:#515151;" d="M210.7,169.9
					c0,0-12.9-8.6-17.9-8.6s-13.5,1.2-22.1,5.3c-8.6,4-10.6,6.5-11.1,7.6c-0.5,1-1,6.5-1.2,10.4c-0.1,3.9,0.7,4.4,1,4.4
					s8-1.3,12.5-0.9c4.6,0.4,5.9,0.3,7.7,0.1S210.7,169.9,210.7,169.9z"/>
			</g>
			<g>
				<defs>
					<path id="SVGID_00000109006696789115007050000001934735821019839934_" d="M210.7,169.9c0,0-12.9-8.6-17.9-8.6
						s-13.5,1.2-22.1,5.3c-8.6,4-10.6,6.5-11.1,7.6c-0.5,1-1,6.5-1.2,10.4c-0.1,3.9,0.7,4.4,1,4.4s8-1.3,12.5-0.9
						c4.6,0.4,5.9,0.3,7.7,0.1S210.7,169.9,210.7,169.9z"/>
				</defs>
				<clipPath id="SVGID_00000003062937931539123770000000545850281515404715_">
					<use xlink:href="#SVGID_00000109006696789115007050000001934735821019839934_"  style="overflow:visible;"/>
				</clipPath>
				<path style="clip-path:url(#SVGID_00000003062937931539123770000000545850281515404715_);fill:#E2E2E2;" d="M194.8,158.7
					c0,0-8.1,4.4-8.3,8.3c-0.2,3.9-0.4,8.5,0,10.3s6.6,7.4,6.6,7.4s26.1-12,25.4-15.3C217.8,166.2,194.8,158.7,194.8,158.7z"/>
			</g>
			<g>
				<defs>
					<path id="SVGID_00000084532544501022973960000011057365305354781362_" d="M210.7,169.9c0,0-12.9-8.6-17.9-8.6
						s-13.5,1.2-22.1,5.3c-8.6,4-10.6,6.5-11.1,7.6c-0.5,1-1,6.5-1.2,10.4c-0.1,3.9,0.7,4.4,1,4.4s8-1.3,12.5-0.9
						c4.6,0.4,5.9,0.3,7.7,0.1S210.7,169.9,210.7,169.9z"/>
				</defs>
				<clipPath id="SVGID_00000031197508987095365870000003743827400254492320_">
					<use xlink:href="#SVGID_00000084532544501022973960000011057365305354781362_"  style="overflow:visible;"/>
				</clipPath>
				
					<path style="opacity:0.25;clip-path:url(#SVGID_00000031197508987095365870000003743827400254492320_);fill:#FFFFFF;enable-background:new    ;" d="
					M212.7,165.3c0,0-28.6,12.1-31.6,14c-3,1.8-9.3,2.9-15.9,4.1c-5.3,0.9-5-12.4-5-12.4s-10.9,22.5-1.8,22.9
					c9.1,0.3,30.3,0.2,39.4-4.9S222.5,170.7,212.7,165.3z"/>
			</g>
		</g>
		<g class="st5">
			<path class="st7" d="M414.9,213.1c22.5-3.2,49-8,84-8s77.3,4.2,75.4,7.5c-1.8,3.3-56.2,7.5-84.5,8.6s-82,4.1-90.8,4.1
				s-27-4-13.7-6.7C398.6,215.9,401,215.1,414.9,213.1z"/>
		</g>
		<path class="st14" d="M545.9,122.9l-4.4,39.1c-1.1,9-1.3,18.1-0.7,27.2l0.9,13.3c0.1,1.7,0,3.5-0.3,5.2l-2.2,11.7
			c-0.3,1.8-0.4,3.7-0.3,5.5l1.5,18c0.2,2.7,0.2,5.4,0,8.1l-0.4,4.3h102.9c4.7,0,8.7-3.7,9-8.4c1-15,6-46.1,30.5-59.2
			c15.4-8.2,28.3-27.2,25.3-43.2s-7.6-30.4-7.6-30.4"/>
		<path class="st14" d="M197.7,162.6c0,0,18.1-10.5,54.4-18.7s118.5-12.8,118.5-12.8s-2.6,6.2-5.2,9.2c0,0-4.7,11.1-5.3,16.5
			c-0.5,5.4-1.6,32.5,0,48.1s3.8,27,4.8,35s2.1,15,2.1,15s147.6,0.4,173.2,0.4"/>
		<path class="st15" d="M420.7,108.8c0.2,3.4-1.2,11.4-10.9,13.4c-6.9,1.5-12.1,1.5-14.4,1.4c-0.1,1-0.2,1.9-0.3,2.7
			c-0.3,4.1,3.9,2.7,8.9,2.1c5-0.6,16.2-2.7,18.1-4.6C423.7,122.3,427.3,112.6,420.7,108.8z"/>
	</g>
</g>
<g>
	<circle class="st16" cx="260.9" cy="257.8" r="27.4"/>
	<path class="st17" d="M260.9,194.6c-34.9,0-63.2,28.3-63.2,63.2S226,321,260.9,321s63.2-28.3,63.2-63.2S295.8,194.6,260.9,194.6z
		 M260.9,303.9c-25.5,0-46.1-20.7-46.1-46.1c0-25.5,20.7-46.1,46.1-46.1s46.1,20.7,46.1,46.1C307,283.3,286.4,303.9,260.9,303.9z"/>
	<path class="st18" d="M260.9,207.4c-27.8,0-50.4,22.6-50.4,50.4s22.6,50.4,50.4,50.4s50.4-22.6,50.4-50.4S288.8,207.4,260.9,207.4z
		 M260.9,299.6c-23.1,0-41.8-18.7-41.8-41.8c0-23.1,18.7-41.8,41.8-41.8s41.8,18.7,41.8,41.8C302.7,280.9,284,299.6,260.9,299.6z"/>
	<path class="st19" d="M260.9,216.2c-23,0-41.6,18.6-41.6,41.6s18.6,41.6,41.6,41.6s41.6-18.6,41.6-41.6S283.9,216.2,260.9,216.2z
		 M260.9,297.1c-21.7,0-39.3-17.6-39.3-39.3s17.6-39.3,39.3-39.3s39.3,17.6,39.3,39.3S282.6,297.1,260.9,297.1z"/>
	<path class="st17" d="M260.9,211.7c-25.5,0-46.1,20.7-46.1,46.1s20.7,46.1,46.1,46.1s46.1-20.7,46.1-46.1S286.4,211.7,260.9,211.7z
		 M260.9,298.4c-22.4,0-40.6-18.2-40.6-40.6s18.2-40.6,40.6-40.6s40.6,18.2,40.6,40.6S283.3,298.4,260.9,298.4z"/>
	<path class="st3" d="M260.9,209.6c-26.7,0-48.3,21.6-48.3,48.3s21.6,48.3,48.3,48.3s48.3-21.6,48.3-48.3S287.6,209.6,260.9,209.6z
		 M304,247.3l-33.5,9.9c-0.1-1.6-0.6-3.1-1.4-4.4L302,241C302.8,243,303.5,245.1,304,247.3z M270.4,214.5
		c12.2,2.7,22.6,10.4,28.8,20.9L267.4,249L270.4,214.5z M260.9,213.4c1.1,0,2.2,0.1,3.3,0.1l-0.9,34.9c-0.7-0.2-1.5-0.3-2.3-0.3
		s-1.6,0.1-2.3,0.3l-0.9-34.9C258.7,213.5,259.8,213.4,260.9,213.4z M251.4,214.5l3.1,34.5l-31.8-13.6
		C228.8,224.9,239.2,217.2,251.4,214.5z M219.8,241l32.9,11.7c-0.8,1.3-1.3,2.8-1.4,4.4l-33.5-9.9C218.3,245.1,219,243,219.8,241z
		 M216.5,257.8c0-1.5,0.1-2.9,0.2-4.3l33.7,7.7l-22.8,26.1C220.8,279.5,216.5,269.1,216.5,257.8z M232.3,291.7l21.3-27.7
		c1,1.2,2.3,2.1,3.8,2.7l-19.7,28.8C235.7,294.4,233.9,293.1,232.3,291.7z M260.9,302.2c-6.3,0-12.3-1.3-17.8-3.7l17.8-29.7
		l17.8,29.7C273.3,300.9,267.2,302.2,260.9,302.2z M284.3,295.5l-19.7-28.8c1.5-0.6,2.8-1.5,3.8-2.7l21.3,27.7
		C287.9,293.1,286.1,294.4,284.3,295.5z M294.1,287.3l-22.8-26.1l33.7-7.7c0.1,1.4,0.2,2.9,0.2,4.3
		C305.3,269.1,301.1,279.5,294.1,287.3z"/>
	<circle class="st20" cx="260.9" cy="257.8" r="6.4"/>
	<path class="st17" d="M252.1,222.1l2.6,29.3c0,0,1.4-12.3,1.4-19.9C256.1,226.6,253.8,223.6,252.1,222.1z"/>
	<path class="st17" d="M269.8,222.1l-2.6,29.3c0,0-1.4-12.3-1.4-19.9C265.7,226.6,268.1,223.6,269.8,222.1z"/>
	<path class="st17" d="M224.2,255.2l28.6,6.6c0,0-11.3-5.2-18.5-7.5C229.8,252.7,226.2,254.1,224.2,255.2z"/>
	<path class="st17" d="M229.7,238.4l27,11.5c0,0-12.2-2.5-19.3-4.8C232.7,243.6,230.6,240.4,229.7,238.4z"/>
	<path class="st17" d="M247.1,291.9l15.1-25.2c0,0-8.4,9.1-12.8,15.2C246.5,285.9,246.6,289.7,247.1,291.9z"/>
	<path class="st17" d="M232.8,281.5l19.3-22.1c0,0-6.1,10.8-10.5,16.9C238.7,280.2,235,281.3,232.8,281.5z"/>
	<path class="st17" d="M289.1,281.5l-19.3-22.1c0,0,6.1,10.8,10.5,16.9C283.1,280.2,286.8,281.3,289.1,281.5z"/>
	<path class="st17" d="M274.8,291.9l-15.1-25.2c0,0,8.4,9.1,12.8,15.2C275.4,285.9,275.2,289.7,274.8,291.9z"/>
	<path class="st17" d="M292.1,238.4l-27,11.5c0,0,12.2-2.5,19.3-4.8C289.1,243.6,291.2,240.4,292.1,238.4z"/>
	<path class="st17" d="M297.6,255.2l-28.6,6.6c0,0,11.3-5.2,18.5-7.5C292.1,252.7,295.7,254.1,297.6,255.2z"/>
	<circle class="st19" cx="260.9" cy="257.7" r="10.8"/>
	<circle class="st17" cx="260.9" cy="257.8" r="8.2"/>
	<circle class="st19" cx="260.9" cy="257.8" r="5.2"/>
</g>
<g>
	<circle class="st16" cx="735" cy="257.8" r="27.4"/>
	<path class="st17" d="M735,194.6c-34.9,0-63.2,28.3-63.2,63.2S700.1,321,735,321s63.2-28.3,63.2-63.2S769.9,194.6,735,194.6z
		 M735,303.9c-25.5,0-46.1-20.7-46.1-46.1c0-25.5,20.7-46.1,46.1-46.1s46.1,20.7,46.1,46.1C781.2,283.3,760.5,303.9,735,303.9z"/>
	<path class="st18" d="M735,207.4c-27.8,0-50.4,22.6-50.4,50.4s22.6,50.4,50.4,50.4c27.8,0,50.4-22.6,50.4-50.4
		C785.5,230,762.9,207.4,735,207.4z M735,299.6c-23.1,0-41.8-18.7-41.8-41.8c0-23.1,18.7-41.8,41.8-41.8s41.8,18.7,41.8,41.8
		C776.9,280.9,758.1,299.6,735,299.6z"/>
	<path class="st19" d="M735,216.2c-23,0-41.6,18.6-41.6,41.6s18.6,41.6,41.6,41.6s41.6-18.6,41.6-41.6S758,216.2,735,216.2z
		 M735,297.1c-21.7,0-39.3-17.6-39.3-39.3s17.6-39.3,39.3-39.3s39.3,17.6,39.3,39.3S756.8,297.1,735,297.1z"/>
	<path class="st17" d="M735,211.7c-25.5,0-46.1,20.7-46.1,46.1s20.7,46.1,46.1,46.1s46.1-20.7,46.1-46.1S760.5,211.7,735,211.7z
		 M735,298.4c-22.4,0-40.6-18.2-40.6-40.6s18.2-40.6,40.6-40.6c22.4,0,40.6,18.2,40.6,40.6S757.5,298.4,735,298.4z"/>
	<path class="st3" d="M735,209.6c-26.7,0-48.3,21.6-48.3,48.3s21.6,48.3,48.3,48.3s48.3-21.6,48.3-48.3S761.7,209.6,735,209.6z
		 M778.2,247.3l-33.5,9.9c-0.1-1.6-0.6-3.1-1.4-4.4l32.9-11.7C777,243,777.6,245.1,778.2,247.3z M744.6,214.5
		c12.2,2.7,22.6,10.4,28.8,20.9L741.5,249L744.6,214.5z M735,213.4c1.1,0,2.2,0.1,3.3,0.1l-0.9,34.9c-0.7-0.2-1.5-0.3-2.3-0.3
		s-1.6,0.1-2.3,0.3l-0.9-34.9C732.9,213.5,733.9,213.4,735,213.4z M725.5,214.5l3.1,34.5l-31.8-13.6
		C702.9,224.9,713.3,217.2,725.5,214.5z M694,241l32.9,11.7c-0.8,1.3-1.3,2.8-1.4,4.4l-33.5-9.9C692.5,245.1,693.1,243,694,241z
		 M690.7,257.8c0-1.5,0.1-2.9,0.2-4.3l33.7,7.7l-22.8,26.1C694.9,279.5,690.7,269.1,690.7,257.8z M706.4,291.7l21.3-27.7
		c1,1.2,2.3,2.1,3.8,2.7l-19.7,28.8C709.8,294.4,708.1,293.1,706.4,291.7z M735,302.2c-6.3,0-12.3-1.3-17.8-3.7l17.8-29.7l17.8,29.7
		C747.4,300.9,741.4,302.2,735,302.2z M758.4,295.5l-19.7-28.8c1.5-0.6,2.8-1.5,3.8-2.7l21.3,27.7
		C762,293.1,760.3,294.4,758.4,295.5z M768.2,287.3l-22.8-26.1l33.7-7.7c0.1,1.4,0.2,2.9,0.2,4.3
		C779.4,269.1,775.2,279.5,768.2,287.3z"/>
	<circle class="st20" cx="735" cy="257.8" r="6.4"/>
	<path class="st17" d="M726.2,222.1l2.6,29.3c0,0,1.4-12.3,1.4-19.9C730.2,226.6,727.9,223.6,726.2,222.1z"/>
	<path class="st17" d="M743.9,222.1l-2.6,29.3c0,0-1.4-12.3-1.4-19.9C739.8,226.6,742.2,223.6,743.9,222.1z"/>
	<path class="st17" d="M698.4,255.2l28.6,6.6c0,0-11.3-5.2-18.5-7.5C703.9,252.7,700.3,254.1,698.4,255.2z"/>
	<path class="st17" d="M703.8,238.4l27,11.5c0,0-12.2-2.5-19.3-4.8C706.9,243.6,704.7,240.4,703.8,238.4z"/>
	<path class="st17" d="M721.2,291.9l15.1-25.2c0,0-8.4,9.1-12.8,15.2C720.6,285.9,720.7,289.7,721.2,291.9z"/>
	<path class="st17" d="M706.9,281.5l19.3-22.1c0,0-6.1,10.8-10.5,16.9C712.8,280.2,709.1,281.3,706.9,281.5z"/>
	<path class="st17" d="M763.2,281.5l-19.3-22.1c0,0,6.1,10.8,10.5,16.9C757.3,280.2,760.9,281.3,763.2,281.5z"/>
	<path class="st17" d="M748.9,291.9l-15.1-25.2c0,0,8.4,9.1,12.8,15.2C749.5,285.9,749.3,289.7,748.9,291.9z"/>
	<path class="st17" d="M766.3,238.4l-27,11.5c0,0,12.2-2.5,19.3-4.8C763.2,243.6,765.4,240.4,766.3,238.4z"/>
	<path class="st17" d="M771.7,255.2l-28.6,6.6c0,0,11.3-5.2,18.5-7.5C766.2,252.7,769.8,254.1,771.7,255.2z"/>
	<circle class="st19" cx="735" cy="257.7" r="10.8"/>
	<circle class="st17" cx="735" cy="257.8" r="8.2"/>
	<circle class="st19" cx="735" cy="257.8" r="5.2"/>
</g>
<line class="st21" x1="557.4" y1="58.3" x2="545.9" y2="122.9"/>
<line class="st21" x1="673.4" y1="70.1" x2="699.9" y2="113.5"/>
</svg>
