<?xml version="1.0" encoding="utf-8"?>
<!-- Generator: Adobe Illustrator 25.4.1, SVG Export Plug-In . SVG Version: 6.00 Build 0)  -->
<svg version="1.1" id="Layer_1" xmlns="http://www.w3.org/2000/svg" xmlns:xlink="http://www.w3.org/1999/xlink" x="0px" y="0px"
	 viewBox="0 0 1920 350.09" style="enable-background:new 0 0 1920 350.09;" xml:space="preserve">
<style type="text/css">
	.st0{opacity:0.25;}
	.st1{fill:#FFFFFF;}
	.st2{opacity:0.5;}
</style>
<g class="st0">
	<polygon class="st1" points="-20,350.09 -1940,350.09 -1940,290.67 -1896.7,290.67 -1896.7,253.13 -1864.54,253.13 
		-1864.54,269.55 -1834.85,269.55 -1834.85,244.92 -1806.39,231.43 -1784.12,241.98 -1784.12,275.42 -1763.09,275.42 
		-1763.09,186.26 -1740.82,186.26 -1740.82,165.14 -1671.55,165.14 -1671.55,186.26 -1646.8,186.26 -1646.8,263.69 -1627.01,263.69 
		-1627.01,244.92 -1584.95,224.97 -1541.65,245.5 -1541.65,263.69 -1518.14,263.69 -1518.14,311.79 -1488.45,311.79 
		-1488.45,263.69 -1464.95,252.54 -1442.68,263.1 -1424.95,263.1 -1424.95,245.7 -1408.45,245.7 -1408.45,232.79 -1383.71,232.79 
		-1368.87,225.76 -1305.36,225.76 -1289.28,218.13 -1255.05,218.13 -1237.53,226.44 -1216.91,226.44 -1216.91,268.67 
		-1197.42,259.44 -1197.42,209.14 -1176.7,209.14 -1176.7,259 -1159.69,267.06 -1138.97,267.06 -1138.97,252.54 -1108.04,252.54 
		-1108.04,263.69 -1093.2,263.69 -1093.2,269.26 -1079.59,269.26 -1037.53,220.87 -1012.78,220.87 -1012.78,205.03 -934.23,205.03 
		-934.23,199.75 -905.15,199.75 -889.07,207.38 -889.07,269.55 -877.94,269.55 -877.94,258.41 -841.44,258.41 -798.45,278.79 
		-798.45,289.2 -764.12,289.2 -764.12,253.91 -742.89,253.91 -742.89,212.85 -727.63,205.62 -681.86,205.62 -668.87,211.77 
		-668.87,246.87 -641.44,246.87 -641.44,233.19 -608.45,233.19 -608.45,243.35 -565.98,223.21 -519.38,223.21 -519.38,237.1 
		-494.64,237.1 -494.64,248.83 -450.93,248.83 -429.9,238.86 -346.19,238.86 -346.19,207.38 -331.34,207.38 -331.34,190.17 
		-243.92,190.17 -243.92,203.47 -224.54,212.65 -224.54,275.03 -205.15,275.03 -205.15,227.71 -166.8,209.53 -166.8,194.59 
		-125.98,194.59 -125.98,246.09 -81.44,246.09 -81.44,232.4 -20,232.4 	"/>
</g>
<g class="st2">
	<path class="st1" d="M1893.6,163.3V252h-10.83v-28.63l-17.6,27.24v-27.24h-10.83V117.21h-25.27V69.72h-9.02V53.66h-4.51v16.06
		h-4.06v20.25h-11.28v24.44h-6.77v61.46l-13.08,20.25v33.17h-7.9v-32.12l-22.79-35.27v-40.5h-10.38v-9.08h-16.24v6.98h-9.93v78.91
		h-11.73v-27.24h-8.12l-13.99,21.65v26.54h-8.57V102.55l-27.07,41.9h-11.28v-16.06h-7.22v16.76h-12.63v46.09h-9.48v-38.41h-14.44
		v20.95h-18.5v9.78h-8.12v9.78h-12.18v32.12h-7.22v-82.41l-45.12-11.87v9.08h-5.41v120.82h-8.57v-69.14h-8.57v32.12h-6.77v44h-6.77
		v-70.53h-18.5v-6.98h-19.8v34.13l-10.89-16.85h-17.94l-10.04,15.54v-85.9h-20.76v64.25h-7.11v43.47l-9.36,14.49v-58.31l-12.41-19.2
		l-13.09,20.25v70.53h-11.28v-37.71h-12.63v27.93h-5.87v-49.58h-5.64v28.28l-14.21-22v-20.95h7.67v-6.11h-51.78l-10.72,16.59v23.39
		l-12.41-19.2h-11.28v-9.43h-18.72l-5.64,8.73v24.44h-6.77v-34.92l-15.34-23.74V91.37h-47.83v144.56h-7.22v-15.36l-6.32-9.78v-12.57
		h-4.51v11.17h-5.19v-31.78l-8.8-13.62v-20.95h-11.28v19.55h-5.87v-18.86h-6.54v19.9l-10.15,15.71h-7.67v11.87h-4.51v79.61h-9.02
		v-75.42l-6.32-9.78v-50.98h-4.51v50.98l-4.96,7.68v74.72h-14.44V132.58l-10.83-16.76V83.69h-32.94v27.24h-10.83v20.95h-14.89v91.14
		h-5.08v-39.28l-13.2,20.43h-7.45v91.14h-11.51v-79.61h-2.91v-9.82h-3.56v-63.57l-5.81-10.21V61.59h-4.31v70.16l-5.81,10.21v35.9
		h-5.24v-49.08h-8.62v40.84h-7.87V93.21h-40.83V36.56h-21.92v29.31l-6.18,10.87V55.01h-8.15v70.49h-45.8l-30.34-53.36h-27.35V48.42
		L622.8,0l-27.16,47.76v79.71h-25.85v-27.01h-5.99v57.31h-68.56V83.33h-10.86V111h-8.62V91.9h-53.2V63.57h-8.24v114.29h-7.87v-41.17
		h-7.87v-26.35h-41.21v23.06h-13.3V74.44l-21.54,37.88v65.55h-13.3v-44.8l-5.06-8.89v32.28H270.1V53.69h-29.22V22.73h-14.98v29.64
		h-11.24V22.73h-14.24v98.81h-29.97c0,0-0.5,30.91-0.08,33.44c-1.3-0.71-15.65,0.16-15.65,0.16v-9.22l-5.62-9.88v19.1h-17.23v-31.95
		h-9.55l-13.3,23.39H56.94V79.38H51.7v12.85H36.53l-18.54,32.61v38.47H0v138.07v48.71h45.2h824.4h2.51H1920V163.3H1893.6z"/>
</g>
</svg>
