<?xml version="1.0" encoding="utf-8"?>
<!-- Generator: Adobe Illustrator 25.4.1, SVG Export Plug-In . SVG Version: 6.00 Build 0)  -->
<svg version="1.1" id="Layer_1" xmlns="http://www.w3.org/2000/svg" xmlns:xlink="http://www.w3.org/1999/xlink" x="0px" y="0px"
	 viewBox="0 0 1920 350.09" style="enable-background:new 0 0 1920 350.09;" xml:space="preserve">
<style type="text/css">
	.st0{opacity:0.25;}
	.st1{fill:#FFFFFF;}
	.st2{opacity:0.5;}
</style>
<g class="st0">
	<polygon class="st1" points="1920,350.09 0,350.09 0,290.67 43.3,290.67 43.3,253.13 75.46,253.13 75.46,269.55 105.15,269.55 
		105.15,244.92 133.61,231.43 155.88,241.98 155.88,275.42 176.91,275.42 176.91,186.26 199.18,186.26 199.18,165.14 268.45,165.14 
		268.45,186.26 293.2,186.26 293.2,263.69 312.99,263.69 312.99,244.92 355.05,224.97 398.35,245.5 398.35,263.69 421.86,263.69 
		421.86,311.79 451.55,311.79 451.55,263.69 475.05,252.54 497.32,263.1 515.05,263.1 515.05,245.7 531.55,245.7 531.55,232.79 
		556.29,232.79 571.13,225.76 634.64,225.76 650.72,218.13 684.95,218.13 702.47,226.44 723.09,226.44 723.09,268.67 742.58,259.44 
		742.58,209.14 763.3,209.14 763.3,259 780.31,267.06 801.03,267.06 801.03,252.54 831.96,252.54 831.96,263.69 846.8,263.69 
		846.8,269.26 860.41,269.26 902.47,220.87 927.22,220.87 927.22,205.03 1005.77,205.03 1005.77,199.75 1034.85,199.75 
		1050.93,207.38 1050.93,269.55 1062.06,269.55 1062.06,258.41 1098.56,258.41 1141.55,278.79 1141.55,289.2 1175.88,289.2 
		1175.88,253.91 1197.11,253.91 1197.11,212.85 1212.37,205.62 1258.14,205.62 1271.13,211.77 1271.13,246.87 1298.56,246.87 
		1298.56,233.19 1331.55,233.19 1331.55,243.35 1374.02,223.21 1420.62,223.21 1420.62,237.1 1445.36,237.1 1445.36,248.83 
		1489.07,248.83 1510.1,238.86 1593.81,238.86 1593.81,207.38 1608.66,207.38 1608.66,190.17 1696.08,190.17 1696.08,203.47 
		1715.46,212.65 1715.46,275.03 1734.85,275.03 1734.85,227.71 1773.2,209.53 1773.2,194.59 1814.02,194.59 1814.02,246.09 
		1858.56,246.09 1858.56,232.4 1920,232.4 	"/>
</g>
<g class="st2">
	<path class="st1" d="M3833.6,163.3V252h-10.83v-28.63l-17.6,27.24v-27.24h-10.83V117.21h-25.27V69.72h-9.02V53.66h-4.51v16.06
		h-4.06v20.25h-11.28v24.44h-6.77v61.46l-13.08,20.25v33.17h-7.9v-32.12l-22.79-35.27v-40.5h-10.38v-9.08h-16.24v6.98h-9.93v78.91
		h-11.73v-27.24h-8.12l-13.99,21.65v26.54h-8.57V102.55l-27.07,41.9h-11.28v-16.06h-7.22v16.76h-12.63v46.09h-9.48v-38.41h-14.44
		v20.95h-18.5v9.78h-8.12v9.78h-12.18v32.12h-7.22v-82.41l-45.12-11.87v9.08h-5.41v120.82h-8.57v-69.14h-8.57v32.12h-6.77v44h-6.77
		v-70.53h-18.5v-6.98h-19.8v34.13l-10.89-16.85h-17.94l-10.04,15.54v-85.9h-20.76v64.25h-7.11v43.47l-9.36,14.49v-58.31l-12.41-19.2
		l-13.08,20.25v70.53h-11.28v-37.71h-12.63v27.93h-5.87v-49.58h-5.64v28.28l-14.21-22v-20.95h7.67v-6.11h-51.78l-10.72,16.59v23.39
		l-12.41-19.2h-11.28v-9.43h-18.72l-5.64,8.73v24.44h-6.77v-34.92l-15.34-23.74V91.37h-47.83v144.56h-7.22v-15.36l-6.32-9.78v-12.57
		h-4.51v11.17h-5.19v-31.78l-8.8-13.62v-20.95h-11.28v19.55h-5.87v-18.86h-6.54v19.9l-10.15,15.71h-7.67v11.87h-4.51v79.61h-9.02
		v-75.42l-6.32-9.78v-50.98h-4.51v50.98l-4.96,7.68v74.72h-14.44V132.58l-10.83-16.76V83.69h-32.94v27.24h-10.83v20.95h-14.89v91.14
		h-5.08v-39.28l-13.2,20.43h-7.44v91.14h-11.51v-79.61h-2.91v-9.82h-3.56v-63.57l-5.81-10.21V61.59h-4.31v70.16l-5.81,10.21v35.9
		h-5.24v-49.08h-8.62v40.84h-7.87V93.21h-40.83V36.56h-21.92v29.31l-6.18,10.87V55.01h-8.15v70.49h-45.8l-30.34-53.36h-27.35V48.42
		L2562.8,0l-27.16,47.76v79.71h-25.85v-27.01h-5.99v57.31h-68.56V83.33h-10.86V111h-8.62V91.9h-53.2V63.57h-8.24v114.29h-7.87
		v-41.17h-7.87v-26.35h-41.21v23.06h-13.3V74.44l-21.54,37.88v65.55h-13.3v-44.8l-5.06-8.89v32.28h-34.09V53.69h-29.22V22.73h-14.98
		v29.64h-11.24V22.73h-14.24v98.81h-29.97c0,0-0.5,30.91-0.08,33.44c-1.3-0.71-15.65,0.16-15.65,0.16v-9.22l-5.62-9.88v19.1h-17.23
		v-31.95h-9.55l-13.3,23.39h-52.07V79.38h-5.24v12.85h-15.17l-18.54,32.61v38.47H1940v138.07v48.71h45.2h824.4h2.51H3860V163.3
		H3833.6z"/>
</g>
</svg>
