<?xml version="1.0" encoding="utf-8"?>
<!-- Generator: Adobe Illustrator 25.4.1, SVG Export Plug-In . SVG Version: 6.00 Build 0)  -->
<svg version="1.1" id="Layer_1" xmlns="http://www.w3.org/2000/svg" xmlns:xlink="http://www.w3.org/1999/xlink" x="0px" y="0px"
	 viewBox="0 0 298.02 78.66" style="enable-background:new 0 0 298.02 78.66;" xml:space="preserve">
<style type="text/css">
	.st0{fill:#FFFFFF;}
	.st1{clip-path:url(#SVGID_00000013871531985203355410000012446053703693754807_);fill:#FFFFFF;}
	.st2{clip-path:url(#SVGID_00000005967390302393952120000005892197805355084219_);fill:#FFFFFF;}
	.st3{clip-path:url(#SVGID_00000005967390302393952120000005892197805355084219_);fill:#FFC335;}
</style>
<g>
	<polygon class="st0" points="214.04,78.52 229.27,78.52 239.67,19.74 245.26,19.74 226.71,6.92 	"/>
	<g>
		<defs>
			<rect id="SVGID_1_" x="0" y="0" width="298.02" height="78.66"/>
		</defs>
		<clipPath id="SVGID_00000082329216724311499810000003559826542310599602_">
			<use xlink:href="#SVGID_1_"  style="overflow:visible;"/>
		</clipPath>
		<path style="clip-path:url(#SVGID_00000082329216724311499810000003559826542310599602_);fill:#FFFFFF;" d="M191.53,34.96
			c-0.8-0.22-1.64-0.36-2.48-0.51c0,0-2.95-0.41-6.51-0.54c-6.01-0.42-9.53-3.89-8.98-7.03c0.55-3.13,5.31-6.6,11.47-7.03
			c0.41-0.03,0.83-0.04,1.25-0.04c0.43,0,0.85,0.02,1.26,0.05c0.12,0.01,0.24,0.02,0.36,0.03c0.29,0.03,0.57,0.06,0.85,0.1
			c0.12,0.02,0.24,0.04,0.36,0.06c0.27,0.05,0.54,0.1,0.8,0.17c0.1,0.02,0.2,0.05,0.3,0.07c0.29,0.08,0.58,0.16,0.86,0.25
			c0.05,0.02,0.11,0.03,0.16,0.05c0.69,0.24,1.32,0.53,1.88,0.85c0.01,0,0.01,0.01,0.02,0.01c0.27,0.16,0.52,0.32,0.75,0.48
			c0.04,0.03,0.07,0.05,0.11,0.08c0.21,0.15,0.41,0.31,0.59,0.47c0.02,0.02,0.04,0.04,0.06,0.05l-2.21,4.46l7.53-1.67L212,22.87
			c0-0.06-0.01-0.11-0.01-0.17h0c0-0.05-0.01-0.1-0.01-0.16c-0.02-0.38-0.06-0.76-0.1-1.14c-0.01-0.09-0.02-0.18-0.04-0.27
			c-0.06-0.43-0.13-0.86-0.23-1.28c0-0.01,0-0.03-0.01-0.04c-0.01-0.03-0.01-0.05-0.02-0.08c-1.64-7.21-7.85-12.64-16.33-14.43
			c-0.04-0.01-0.08-0.02-0.12-0.02c-0.61-0.13-1.22-0.24-1.85-0.32c-0.08-0.01-0.15-0.02-0.22-0.03c-0.62-0.08-1.25-0.15-1.89-0.19
			c-0.07-0.01-0.14-0.01-0.21-0.01c-0.66-0.04-1.33-0.07-2.01-0.07c-2.76,0-5.49,0.35-8.11,1c-11.36,2.82-20.76,11.28-22.52,21.24
			c-1.77,9.97,4.64,18.42,15.01,21.24c2.63,0.6,6.81,0.83,8.99,1.04c6.01,0.42,9.53,3.89,8.98,7.03c-0.55,3.13-5.31,6.6-11.47,7.03
			c-0.41,0.03-0.83,0.04-1.25,0.04c-0.43,0-0.85-0.02-1.26-0.05c-0.12-0.01-0.24-0.02-0.36-0.04c-0.28-0.03-0.57-0.06-0.85-0.1
			c-0.12-0.02-0.25-0.04-0.37-0.06c-0.27-0.05-0.54-0.1-0.8-0.17c-0.1-0.02-0.2-0.05-0.3-0.07c-0.29-0.08-0.58-0.16-0.86-0.26
			c-0.05-0.02-0.11-0.03-0.16-0.05c-0.69-0.24-1.32-0.53-1.88-0.85c-0.01,0-0.01-0.01-0.02-0.01c-0.27-0.16-0.52-0.32-0.76-0.48
			c-0.04-0.03-0.07-0.05-0.1-0.08c-0.21-0.15-0.41-0.31-0.59-0.47c-0.02-0.02-0.04-0.04-0.06-0.05l2.37-4.41l-7.68,1.62l-12.04,2.49
			c0,0.06,0.01,0.11,0.01,0.17h0c0,0.06,0.01,0.11,0.01,0.16c0.02,0.38,0.06,0.76,0.1,1.14c0.01,0.09,0.02,0.18,0.03,0.27
			c0.06,0.43,0.14,0.86,0.23,1.28c0,0.01,0,0.03,0.01,0.04c0.01,0.03,0.02,0.05,0.02,0.08c1.64,7.21,7.85,12.64,16.32,14.43
			c0.04,0.01,0.09,0.02,0.12,0.02c0.61,0.13,1.23,0.24,1.86,0.32c0.07,0.01,0.15,0.02,0.22,0.03c0.62,0.08,1.25,0.15,1.88,0.19
			c0.07,0,0.14,0.01,0.21,0.01c0.66,0.04,1.33,0.07,2.01,0.07c2.76,0,5.49-0.35,8.11-1c11.36-2.82,20.76-11.28,22.52-21.24
			C208.3,46.24,201.89,37.78,191.53,34.96"/>
	</g>
	<polygon class="st0" points="81.2,4.71 84.64,7 64.14,51.31 59.08,4.71 41.1,4.71 44.54,7 44.54,7.03 24.07,51.31 19.01,4.71 
		0,4.71 3.43,6.99 11.2,78.66 27.25,78.66 46.71,36.59 51.28,78.66 67.33,78.66 101.52,4.71 	"/>
	<polygon class="st0" points="130.93,4.71 119.27,4.71 115.11,4.71 80.9,78.66 96.74,78.66 119.42,78.66 117.81,63.76 117.43,59.89 
		112.41,63.48 103.76,63.48 121.48,25.14 127.28,78.66 143.12,78.66 135.09,4.71 	"/>
	<g>
		<defs>
			<rect id="SVGID_00000050652560089519062060000012064322382191676344_" x="0" y="0" width="298.02" height="78.66"/>
		</defs>
		<clipPath id="SVGID_00000139272819800841311220000017922099042755790270_">
			<use xlink:href="#SVGID_00000050652560089519062060000012064322382191676344_"  style="overflow:visible;"/>
		</clipPath>
		<path style="clip-path:url(#SVGID_00000139272819800841311220000017922099042755790270_);fill:#FFFFFF;" d="M292.27,11.52
			c-3.17,0-5.75-2.58-5.75-5.76c0-3.18,2.58-5.76,5.75-5.76c3.17,0,5.75,2.58,5.75,5.76C298.02,8.94,295.44,11.52,292.27,11.52
			 M292.27,0.97c-2.64,0-4.79,2.15-4.79,4.8c0,2.64,2.14,4.8,4.79,4.8c2.64,0,4.79-2.15,4.79-4.8
			C297.06,3.12,294.91,0.97,292.27,0.97"/>
		<path style="clip-path:url(#SVGID_00000139272819800841311220000017922099042755790270_);fill:#FFFFFF;" d="M293.81,8.76
			l-1.47-2.42h-1.05v2.42h-1.02V2.76h2.13c1.34,0,2.35,0.44,2.35,1.74c0,0.93-0.54,1.48-1.36,1.72l1.59,2.54H293.81z M291.29,5.58
			h0.98c0.94,0,1.46-0.36,1.46-1.08s-0.51-0.98-1.46-0.98h-0.98V5.58z"/>
		<path style="clip-path:url(#SVGID_00000139272819800841311220000017922099042755790270_);fill:#FFC335;" d="M253.18,4.57h-10.82
			h-3.09h-2.56h-9.59h-3.82l3.41,2.28l-0.01,0.08l18.55,12.82h5.23c5.62,0,9.38,4.55,8.39,10.15c-0.99,5.6-6.37,10.15-11.99,10.15
			h-3.62l-0.74-3.34l-8.55,18.52h10.23c14.02,0,27.43-11.36,29.91-25.33C276.59,15.93,267.2,4.57,253.18,4.57"/>
		<path style="clip-path:url(#SVGID_00000139272819800841311220000017922099042755790270_);fill:#FFC335;" d="M163.63,72.39
			c-0.15,0-0.3-0.05-0.43-0.14c-0.3-0.21-0.39-0.62-0.21-0.94l13.94-24.35l-5.45-3.1c-0.19-0.11-0.32-0.3-0.36-0.52
			c-0.04-0.22,0.03-0.44,0.18-0.6l29.38-31.58c0.15-0.16,0.34-0.23,0.54-0.23c0.15,0,0.3,0.04,0.43,0.14
			c0.3,0.21,0.39,0.62,0.21,0.94l-13.93,24.35l5.45,3.1c0.19,0.11,0.32,0.3,0.36,0.52c0.03,0.22-0.03,0.44-0.18,0.6l-29.39,31.57
			C164.03,72.31,163.83,72.39,163.63,72.39"/>
	</g>
</g>
</svg>
