<?xml version="1.0" encoding="utf-8"?>
<!-- Generator: Adobe Illustrator 25.4.1, SVG Export Plug-In . SVG Version: 6.00 Build 0)  -->
<svg version="1.1" id="Layer_1" xmlns="http://www.w3.org/2000/svg" xmlns:xlink="http://www.w3.org/1999/xlink" x="0px" y="0px"
	 viewBox="0 0 298.02 111.95" style="enable-background:new 0 0 298.02 111.95;" xml:space="preserve">
<style type="text/css">
	.st0{fill:#FFFFFF;}
	.st1{clip-path:url(#SVGID_00000158735496495076855840000017157979369906527650_);fill:#130C0E;}
	.st2{clip-path:url(#SVGID_00000158735496495076855840000017157979369906527650_);fill:#FAC80B;}
	.st3{fill:#130C0E;}
	.st4{clip-path:url(#SVGID_00000149368139063187853300000015775532396709811879_);fill:#130C0E;}
	.st5{clip-path:url(#SVGID_00000149368139063187853300000015775532396709811879_);fill:#FAC80B;}
	.st6{clip-path:url(#SVGID_00000149368139063187853300000015775532396709811879_);fill:#F2B638;}
</style>
<g>
	<g>
		<g>
			<path class="st0" d="M40.51,9.15C22.61,9.63,8.54,23.83,8.54,40.72V89.9l10.49-16c1.01-1.63,2.86-2.64,4.86-2.64H40.9
				c17.9,0,32.95-13.28,33.45-30.17C74.88,23.26,59.4,8.65,40.51,9.15"/>
		</g>
		<g>
			<defs>
				<path id="SVGID_1_" d="M41.47,19.15c-2.54,0-5.19,0.42-7.86,1.33C25.92,23.1,19.66,31.8,19.66,39.71v17.98
					c0,2.1,1.75,3.81,3.92,3.81H42.1c8.89,0,16.87-5.41,19.81-13.55C67.31,33.05,56.06,19.15,41.47,19.15
					C41.47,19.15,41.47,19.15,41.47,19.15"/>
			</defs>
			<clipPath id="SVGID_00000073708190952003276470000005959733764566114968_">
				<use xlink:href="#SVGID_1_"  style="overflow:visible;"/>
			</clipPath>
			<path style="clip-path:url(#SVGID_00000073708190952003276470000005959733764566114968_);fill:#130C0E;" d="M61.91,47.95
				c-2.95,8.14-10.92,13.55-19.81,13.55H23.58c-2.17,0-3.92-1.7-3.92-3.81V39.71c0-7.91,6.26-16.61,13.96-19.23
				C51.64,14.34,68.24,30.45,61.91,47.95"/>
			<path style="clip-path:url(#SVGID_00000073708190952003276470000005959733764566114968_);fill:#FAC80B;" d="M11,76.45
				c-3.76,0-6.82-2.97-6.82-6.62s3.06-6.62,6.82-6.62c3.76,0,6.82,2.97,6.82,6.62S14.76,76.45,11,76.45 M11,68.66
				c-0.67,0-1.21,0.53-1.21,1.17s0.54,1.17,1.21,1.17c0.67,0,1.21-0.53,1.21-1.17S11.67,68.66,11,68.66"/>
			<path style="clip-path:url(#SVGID_00000073708190952003276470000005959733764566114968_);fill:#FAC80B;" d="M11,88.29
				c-10.48,0-19.01-8.28-19.01-18.45S0.52,51.39,11,51.39s19.01,8.27,19.01,18.45S21.48,88.29,11,88.29 M11,56.83
				c-7.39,0-13.4,5.83-13.4,13.01c0,7.17,6.01,13.01,13.4,13.01s13.4-5.83,13.4-13.01C24.4,62.66,18.39,56.83,11,56.83"/>
			<path style="clip-path:url(#SVGID_00000073708190952003276470000005959733764566114968_);fill:#FAC80B;" d="M11,100.12
				c-17.2,0-31.2-13.58-31.2-30.28s14-30.28,31.2-30.28s31.2,13.58,31.2,30.28S28.21,100.12,11,100.12 M11,45
				c-14.11,0-25.59,11.14-25.59,24.84S-3.11,94.68,11,94.68S36.6,83.53,36.6,69.84S25.11,45,11,45"/>
			<path style="clip-path:url(#SVGID_00000073708190952003276470000005959733764566114968_);fill:#FAC80B;" d="M11,111.95
				c-11.59,0-22.49-4.38-30.68-12.34c-8.2-7.95-12.71-18.53-12.71-29.78s4.51-21.83,12.71-29.78C-11.49,32.1-0.59,27.72,11,27.72
				s22.49,4.38,30.68,12.34c8.2,7.95,12.71,18.53,12.71,29.78s-4.51,21.83-12.71,29.78C33.49,107.57,22.59,111.95,11,111.95
				 M11,33.16c-20.84,0-37.78,16.45-37.78,36.67S-9.83,106.51,11,106.51c20.83,0,37.78-16.45,37.78-36.67S31.83,33.16,11,33.16"/>
		</g>
		<g>
			<path class="st3" d="M7.28,103.17c-0.61,0-1.23-0.11-1.84-0.34c-1.95-0.75-3.16-2.67-3.16-4.7V41c0-21.2,17.56-38.83,39.4-38.71
				C63.12,2.4,80.54,19.3,80.65,40.11c0.12,21.2-18.04,38.25-39.89,38.25H27.94c-1.78,0-3.43,0.92-4.32,2.41l-12.02,20
				C10.68,102.28,9.03,103.17,7.28,103.17 M40.64,11.99c-15.88,0.43-28.36,13.39-28.36,28.8v39.6l5.61-9.33
				c0.9-1.49,2.54-2.41,4.32-2.41h18.79c15.88,0,29.23-12.12,29.68-27.53C71.13,24.87,57.39,11.54,40.64,11.99"/>
			<path class="st0" d="M39.86,29.32c0-1.29,0.45-2.37,1.33-3.25c0.89-0.88,2-1.32,3.32-1.32c1.33,0,2.44,0.44,3.35,1.32
				c0.91,0.88,1.36,1.96,1.36,3.25c0,1.29-0.45,2.36-1.36,3.23c-0.91,0.87-2.02,1.3-3.35,1.3c-1.33,0-2.43-0.43-3.32-1.3
				C40.3,31.68,39.86,30.61,39.86,29.32"/>
			<path class="st0" d="M40.51,9.15C22.61,9.63,8.54,23.83,8.54,40.72V89.9l10.49-16c1.01-1.63,2.86-2.64,4.86-2.64H40.9
				c17.9,0,32.95-13.28,33.45-30.17C74.88,23.26,59.4,8.65,40.51,9.15"/>
		</g>
		<g>
			<defs>
				<path id="SVGID_00000071525774582223108740000012363381949725129865_" d="M41.47,19.15c-2.54,0-5.19,0.42-7.86,1.33
					C25.92,23.1,19.66,31.8,19.66,39.71v17.98c0,2.1,1.75,3.81,3.92,3.81H42.1c8.89,0,16.87-5.41,19.81-13.55
					C67.31,33.05,56.06,19.15,41.47,19.15C41.47,19.15,41.47,19.15,41.47,19.15"/>
			</defs>
			<clipPath id="SVGID_00000021811241085699372320000008238433474080506557_">
				<use xlink:href="#SVGID_00000071525774582223108740000012363381949725129865_"  style="overflow:visible;"/>
			</clipPath>
			<path style="clip-path:url(#SVGID_00000021811241085699372320000008238433474080506557_);fill:#130C0E;" d="M61.91,47.95
				c-2.95,8.14-10.92,13.55-19.81,13.55H23.58c-2.17,0-3.92-1.7-3.92-3.81V39.71c0-7.91,6.26-16.61,13.96-19.23
				C51.64,14.34,68.24,30.45,61.91,47.95"/>
			<path style="clip-path:url(#SVGID_00000021811241085699372320000008238433474080506557_);fill:#FAC80B;" d="M11,76.45
				c-3.76,0-6.82-2.97-6.82-6.62s3.06-6.62,6.82-6.62c3.76,0,6.82,2.97,6.82,6.62S14.76,76.45,11,76.45 M11,68.66
				c-0.67,0-1.21,0.53-1.21,1.17s0.54,1.17,1.21,1.17c0.67,0,1.21-0.53,1.21-1.17S11.67,68.66,11,68.66"/>
			<path style="clip-path:url(#SVGID_00000021811241085699372320000008238433474080506557_);fill:#F2B638;" d="M11,88.29
				c-10.48,0-19.01-8.28-19.01-18.45S0.52,51.39,11,51.39s19.01,8.27,19.01,18.45S21.48,88.29,11,88.29 M11,56.83
				c-7.39,0-13.4,5.83-13.4,13.01c0,7.17,6.01,13.01,13.4,13.01s13.4-5.83,13.4-13.01C24.4,62.66,18.39,56.83,11,56.83"/>
			<path style="clip-path:url(#SVGID_00000021811241085699372320000008238433474080506557_);fill:#F2B638;" d="M11,100.12
				c-17.2,0-31.2-13.58-31.2-30.28s14-30.28,31.2-30.28s31.2,13.58,31.2,30.28S28.21,100.12,11,100.12 M11,45
				c-14.11,0-25.59,11.14-25.59,24.84S-3.11,94.68,11,94.68S36.6,83.53,36.6,69.84S25.11,45,11,45"/>
			<path style="clip-path:url(#SVGID_00000021811241085699372320000008238433474080506557_);fill:#F2B638;" d="M11,111.95
				c-11.59,0-22.49-4.38-30.68-12.34c-8.2-7.95-12.71-18.53-12.71-29.78s4.51-21.83,12.71-29.78C-11.49,32.1-0.59,27.72,11,27.72
				s22.49,4.38,30.68,12.34c8.2,7.95,12.71,18.53,12.71,29.78s-4.51,21.83-12.71,29.78C33.49,107.57,22.59,111.95,11,111.95
				 M11,33.16c-20.84,0-37.78,16.45-37.78,36.67S-9.83,106.51,11,106.51c20.83,0,37.78-16.45,37.78-36.67S31.83,33.16,11,33.16"/>
		</g>
		<g>
			<path class="st3" d="M7.28,104.32c-0.77,0-1.52-0.14-2.25-0.42c-2.33-0.89-3.89-3.21-3.89-5.77V41
				c0-21.98,18.09-39.86,40.33-39.86l0.22,0C63.69,1.26,81.68,18.74,81.8,40.1c0.06,10.13-3.95,19.77-11.28,27.14
				C62.78,75.03,51.93,79.5,40.77,79.5H27.94c-1.37,0-2.66,0.71-3.34,1.85l-12.02,20C11.48,103.18,9.45,104.32,7.28,104.32
				 M41.47,13.13c-0.27,0-0.53,0-0.8,0.01C25.64,13.55,13.42,25.95,13.42,40.8v35.47l3.48-5.79c1.1-1.82,3.13-2.96,5.3-2.96h18.79
				c15.31,0,28.11-11.85,28.53-26.42c0.21-7.24-2.5-14.13-7.62-19.41C56.52,16.17,49.27,13.13,41.47,13.13"/>
			<path class="st0" d="M41.48,2.29h0.22C63.12,2.4,80.54,19.3,80.65,40.11c0.12,21.2-18.04,38.25-39.89,38.25H27.94
				c-1.78,0-3.43,0.92-4.32,2.41l-12.02,20c-0.91,1.51-2.57,2.41-4.31,2.41c-0.61,0-1.23-0.11-1.84-0.34
				c-1.95-0.75-3.16-2.67-3.16-4.7V41C2.29,19.87,19.74,2.29,41.48,2.29 M12.27,80.39l5.61-9.33c0.9-1.49,2.54-2.4,4.32-2.4h18.79
				c15.88,0,29.23-12.12,29.68-27.53c0.46-15.99-12.81-29.15-29.18-29.15c-0.28,0-0.56,0-0.84,0.01
				c-15.88,0.43-28.36,13.39-28.36,28.8V80.39 M41.48,0L41.48,0C18.6,0,0,18.39,0,41v57.13c0,3.03,1.86,5.78,4.63,6.84
				c0.85,0.33,1.75,0.49,2.66,0.49c2.57,0,4.97-1.35,6.28-3.52l12.02-20c0.48-0.8,1.39-1.3,2.36-1.3h12.83
				c11.47,0,22.61-4.59,30.57-12.6C78.88,60.46,83,50.53,82.94,40.1C82.82,18.11,64.32,0.12,41.7,0H41.48z M14.56,72.14V40.8
				c0-6.88,2.69-13.43,7.57-18.42c4.92-5.03,11.51-7.9,18.56-8.1c0.26-0.01,0.52-0.01,0.77-0.01c7.49,0,14.45,2.92,19.6,8.22
				c4.91,5.05,7.5,11.65,7.3,18.58c-0.2,6.8-3.15,13.17-8.31,17.93c-5.16,4.76-11.94,7.38-19.08,7.38H22.19
				c-2.57,0-4.97,1.35-6.28,3.51L14.56,72.14z"/>
			<path class="st0" d="M39.86,29.32c0-1.29,0.45-2.37,1.33-3.25c0.89-0.88,2-1.32,3.32-1.32c1.33,0,2.44,0.44,3.35,1.32
				c0.91,0.88,1.36,1.96,1.36,3.25c0,1.29-0.45,2.36-1.36,3.23c-0.91,0.87-2.02,1.3-3.35,1.3c-1.33,0-2.43-0.43-3.32-1.3
				C40.3,31.68,39.86,30.61,39.86,29.32"/>
		</g>
	</g>
	<g>
		<path class="st3" d="M93.96,31.95c0-0.67,0.09-1.25,0.28-1.74c0.19-0.49,0.43-0.9,0.73-1.22c0.3-0.32,0.65-0.57,1.04-0.73
			c0.4-0.17,0.8-0.28,1.21-0.34c0.31-0.06,0.68-0.12,1.11-0.18c0.43-0.06,0.96-0.11,1.61-0.16c0.64-0.05,1.43-0.08,2.36-0.11
			c0.93-0.03,2.06-0.04,3.38-0.04c2.84,0,5.2,0.31,7.09,0.94c1.89,0.63,3.41,1.45,4.56,2.48c1.15,1.03,1.97,2.2,2.46,3.53
			c0.49,1.33,0.73,2.7,0.73,4.11c0,1.62-0.27,3.11-0.8,4.45c-0.54,1.34-1.37,2.5-2.5,3.46c-1.14,0.96-2.59,1.71-4.37,2.25
			c-1.78,0.54-3.9,0.8-6.36,0.8c-0.57,0-1.12-0.01-1.65-0.05c-0.54-0.03-1.02-0.06-1.46-0.09c-0.44-0.03-0.81-0.07-1.11-0.11
			c-0.3-0.05-0.5-0.07-0.59-0.07v10.23h-7.7V31.95z M101.67,42.64c0.22,0.03,0.61,0.09,1.16,0.16c0.55,0.08,1.45,0.11,2.72,0.11
			c1.45,0,2.62-0.13,3.52-0.39c0.9-0.26,1.6-0.6,2.1-1.03c0.5-0.43,0.84-0.91,1.02-1.44c0.17-0.54,0.26-1.06,0.26-1.58
			c0-0.49-0.07-0.99-0.21-1.51c-0.14-0.52-0.45-1-0.92-1.45c-0.47-0.44-1.16-0.81-2.05-1.1c-0.9-0.29-2.1-0.43-3.62-0.43
			c-1.1,0-2,0.02-2.69,0.07c-0.69,0.05-1.12,0.08-1.28,0.11V42.64z"/>
		<path class="st3" d="M149.49,59.19c-0.19,0.06-0.61,0.13-1.28,0.21c-0.66,0.08-1.49,0.16-2.48,0.25c-0.99,0.09-2.13,0.17-3.4,0.23
			c-1.28,0.06-2.62,0.09-4.04,0.09c-2.4,0-4.38-0.2-5.96-0.62c-1.57-0.41-2.83-0.97-3.78-1.67c-0.95-0.7-1.61-1.52-1.99-2.45
			c-0.38-0.93-0.57-1.92-0.57-2.96c0-2.81,0.93-4.82,2.79-6.03c1.86-1.21,4.8-1.81,8.84-1.81c1.01,0,1.85,0.02,2.53,0.05
			c0.68,0.03,1.23,0.08,1.68,0.14c0-1.07-0.45-1.91-1.35-2.52c-0.9-0.61-2.39-0.92-4.46-0.92c-0.98,0-1.84,0.06-2.58,0.16
			c-0.74,0.11-1.37,0.24-1.89,0.39c-0.52,0.15-0.94,0.31-1.25,0.46c-0.31,0.15-0.54,0.28-0.66,0.37c-0.06-0.06-0.19-0.18-0.38-0.37
			c-0.19-0.18-0.38-0.42-0.57-0.71c-0.19-0.29-0.36-0.62-0.52-0.99c-0.16-0.37-0.24-0.76-0.24-1.19c0-2.66,2.8-3.99,8.41-3.99
			c1.83,0,3.54,0.16,5.15,0.48c1.6,0.32,3,0.87,4.18,1.65c1.18,0.78,2.11,1.81,2.79,3.1c0.68,1.28,1.02,2.89,1.02,4.82V59.19z
			 M141.88,49.61c-0.28-0.06-0.7-0.11-1.25-0.16c-0.55-0.05-1.38-0.07-2.48-0.07c-0.94,0-1.72,0.08-2.31,0.23
			c-0.6,0.15-1.06,0.36-1.4,0.62c-0.33,0.26-0.56,0.56-0.68,0.89c-0.13,0.34-0.19,0.69-0.19,1.06c0,0.28,0.05,0.57,0.14,0.87
			c0.09,0.31,0.3,0.58,0.61,0.83c0.31,0.24,0.79,0.45,1.42,0.62c0.63,0.17,1.46,0.25,2.5,0.25c0.82,0,1.57-0.02,2.27-0.07
			c0.69-0.05,1.15-0.1,1.37-0.16V49.61z"/>
		<path class="st3" d="M158.23,44.65c0-1.5,0.26-2.83,0.78-3.99c0.52-1.16,1.24-2.14,2.15-2.94c0.91-0.8,2.02-1.4,3.31-1.81
			c1.29-0.41,2.71-0.62,4.25-0.62c1.89,0,3.36,0.2,4.42,0.6c1.06,0.4,1.82,0.83,2.29,1.28c0.28,0.31,0.5,0.63,0.66,0.96
			c0.16,0.34,0.24,0.74,0.24,1.19c0,0.46-0.07,0.89-0.21,1.28c-0.14,0.4-0.31,0.75-0.52,1.06c-0.2,0.31-0.4,0.57-0.59,0.78
			c-0.19,0.21-0.33,0.37-0.43,0.46c-0.54-0.25-1.18-0.47-1.94-0.69c-0.76-0.21-1.59-0.32-2.51-0.32c-1.2,0-2.21,0.34-3.05,1.01
			c-0.84,0.67-1.25,1.79-1.25,3.35v13.07h-7.61V44.65z"/>
		<path class="st3" d="M182.47,28.79c0-1.19,0.36-2.03,1.09-2.52c0.72-0.49,1.68-0.73,2.88-0.73c0.85,0,1.62,0.1,2.31,0.3
			c0.69,0.2,1.14,0.33,1.32,0.39v17.5c0.57-0.46,1.17-0.94,1.82-1.44c0.65-0.5,1.28-1,1.89-1.51c0.61-0.5,1.2-0.97,1.75-1.42
			c0.55-0.44,1-0.81,1.35-1.12c0.47-0.4,0.89-0.74,1.25-1.03c0.36-0.29,0.74-0.53,1.13-0.71c0.4-0.18,0.81-0.32,1.25-0.41
			c0.44-0.09,0.98-0.14,1.61-0.14c0.63,0,1.21,0.09,1.75,0.28c0.54,0.18,1.01,0.4,1.42,0.66c0.41,0.26,0.76,0.54,1.04,0.83
			c0.28,0.29,0.49,0.54,0.61,0.76c-0.6,0.61-1.35,1.3-2.24,2.06c-0.9,0.76-1.83,1.52-2.79,2.26s-1.89,1.46-2.79,2.15
			c-0.9,0.69-1.63,1.26-2.2,1.71c1.95,1.71,3.93,3.68,5.93,5.9c2,2.22,3.8,4.48,5.41,6.78h-9.4c-0.63-0.83-1.32-1.67-2.08-2.53
			c-0.76-0.86-1.53-1.68-2.31-2.48c-0.79-0.8-1.56-1.56-2.32-2.28c-0.75-0.72-1.45-1.39-2.08-2v9.29h-7.61V28.79z"/>
		<path class="st3" d="M214.65,29.24c0-1.05,0.36-1.92,1.08-2.64c0.72-0.71,1.62-1.07,2.7-1.07c1.08,0,1.98,0.36,2.72,1.07
			c0.74,0.72,1.11,1.6,1.11,2.64c0,1.05-0.37,1.92-1.11,2.62c-0.74,0.7-1.64,1.05-2.72,1.05c-1.08,0-1.98-0.35-2.7-1.05
			C215.01,31.16,214.65,30.29,214.65,29.24"/>
		<path class="st3" d="M214.65,39.2c0-1.19,0.36-2.03,1.09-2.52c0.72-0.49,1.68-0.73,2.88-0.73c0.85,0,1.62,0.1,2.31,0.3
			c0.69,0.2,1.14,0.33,1.32,0.39v22.7h-7.61V39.2z"/>
		<path class="st3" d="M230.52,45.16c0-1.59,0.31-3,0.94-4.24c0.63-1.24,1.5-2.27,2.6-3.1c1.1-0.83,2.38-1.45,3.83-1.88
			c1.45-0.43,3.01-0.64,4.68-0.64c1.64,0,3.19,0.21,4.65,0.64c1.47,0.43,2.74,1.06,3.83,1.88c1.09,0.83,1.95,1.86,2.58,3.1
			c0.63,1.24,0.94,2.65,0.94,4.24v14.17h-7.61V46.86c0-1.62-0.38-2.82-1.13-3.6s-1.84-1.17-3.26-1.17c-2.96,0-4.44,1.59-4.44,4.77
			v12.48h-7.61V45.16z"/>
		<path class="st3" d="M266.53,61.62c0.09,0.06,0.35,0.17,0.76,0.32c0.41,0.15,0.94,0.31,1.58,0.48c0.64,0.17,1.4,0.32,2.27,0.46
			c0.86,0.14,1.8,0.21,2.81,0.21c1.01,0,1.94-0.11,2.81-0.32c0.86-0.22,1.61-0.57,2.22-1.08c0.61-0.51,1.09-1.15,1.44-1.93
			c0.35-0.78,0.52-1.75,0.52-2.91v-0.51c-0.16,0.15-0.42,0.37-0.78,0.64c-0.36,0.28-0.83,0.55-1.42,0.83
			c-0.58,0.28-1.27,0.52-2.05,0.74c-0.79,0.21-1.67,0.32-2.65,0.32c-1.7,0-3.27-0.25-4.7-0.76c-1.43-0.5-2.67-1.24-3.71-2.22
			c-1.04-0.98-1.84-2.18-2.41-3.6c-0.57-1.42-0.85-3.03-0.85-4.84c0-1.8,0.33-3.45,0.99-4.93c0.66-1.48,1.57-2.76,2.74-3.83
			c1.17-1.07,2.56-1.9,4.18-2.5c1.62-0.6,3.41-0.9,5.36-0.9c2.17,0,4.18,0.4,6.02,1.19c1.84,0.8,3.36,1.96,4.56,3.49
			c0.75,0.98,1.33,2.12,1.72,3.44c0.39,1.31,0.59,2.98,0.59,5v6.83c0,2.39-0.35,4.44-1.04,6.17c-0.69,1.73-1.65,3.15-2.88,4.27
			c-1.23,1.11-2.69,1.94-4.37,2.48c-1.68,0.54-3.52,0.8-5.5,0.8c-1.39,0-2.66-0.08-3.83-0.25c-1.17-0.17-2.2-0.37-3.1-0.6
			c-0.9-0.23-1.64-0.46-2.22-0.69c-0.58-0.23-0.97-0.41-1.16-0.53L266.53,61.62z M270.17,47.45c0,1.74,0.5,3.04,1.51,3.9
			c1.01,0.86,2.3,1.28,3.88,1.28c1.54,0,2.83-0.47,3.85-1.42c1.02-0.95,1.54-2.2,1.54-3.76c0-1.56-0.51-2.84-1.54-3.83
			c-1.02-0.99-2.31-1.49-3.85-1.49c-0.79,0-1.51,0.14-2.17,0.41c-0.66,0.28-1.23,0.66-1.7,1.15c-0.47,0.49-0.84,1.06-1.11,1.7
			C270.3,46.03,270.17,46.72,270.17,47.45"/>
		<path class="st3" d="M189.25,93.34c0.25,0.2,0.67,0.43,1.25,0.71c0.58,0.28,1.28,0.54,2.08,0.79c0.8,0.25,1.72,0.46,2.74,0.64
			c1.02,0.18,2.1,0.27,3.24,0.27c1.29,0,2.27-0.12,2.93-0.37c0.66-0.25,0.99-0.68,0.99-1.31c0-0.66-0.28-1.11-0.83-1.35
			c-0.55-0.25-1.41-0.45-2.58-0.62l-2.46-0.3c-1.23-0.16-2.41-0.4-3.54-0.71c-1.13-0.31-2.14-0.77-3-1.38
			c-0.87-0.61-1.55-1.39-2.05-2.34c-0.51-0.95-0.76-2.15-0.76-3.59c0-1.21,0.21-2.34,0.64-3.37c0.43-1.03,1.09-1.93,2.01-2.71
			c0.91-0.77,2.08-1.38,3.5-1.82c1.42-0.44,3.1-0.66,5.05-0.66c1.99,0,3.69,0.13,5.13,0.39c1.43,0.26,2.67,0.67,3.71,1.23
			c0.6,0.33,1.08,0.73,1.44,1.21c0.36,0.48,0.54,1.06,0.54,1.75c0,0.53-0.1,0.99-0.31,1.4c-0.2,0.41-0.44,0.76-0.71,1.06
			c-0.27,0.29-0.52,0.52-0.76,0.69c-0.23,0.17-0.38,0.26-0.45,0.3c-0.09-0.1-0.35-0.28-0.78-0.54c-0.43-0.26-0.99-0.52-1.7-0.76
			c-0.71-0.25-1.56-0.47-2.55-0.66c-0.99-0.2-2.12-0.29-3.38-0.29c-1.42,0-2.4,0.17-2.95,0.51c-0.55,0.35-0.83,0.8-0.83,1.35
			c0,0.56,0.25,0.95,0.75,1.18c0.51,0.23,1.26,0.43,2.27,0.59l4.3,0.64c1.07,0.17,2.1,0.4,3.09,0.71c0.99,0.31,1.88,0.76,2.65,1.35
			c0.77,0.59,1.39,1.34,1.84,2.26c0.46,0.92,0.68,2.03,0.68,3.35c0,2.76-1.01,4.91-3.02,6.45c-2.02,1.54-4.8,2.31-8.36,2.31
			c-1.86,0-3.51-0.13-4.94-0.39c-1.43-0.26-2.67-0.57-3.71-0.91c-1.04-0.34-1.88-0.71-2.53-1.08c-0.65-0.38-1.09-0.66-1.35-0.86
			L189.25,93.34z"/>
		<path class="st3" d="M256.36,72.27v22.46c0,3.08-2.71,5.58-6.05,5.58h-18.3c-3.34,0-6.05-2.5-6.05-5.58V77.85
			c0-3.08,2.71-5.58,6.05-5.58H256.36z M259.94,68.96h-27.93c-5.32,0-9.63,3.98-9.63,8.88v16.88c0,4.91,4.31,8.88,9.63,8.88h18.3
			c5.32,0,9.63-3.98,9.63-8.88V68.96z"/>
		<path class="st3" d="M242.23,93.24c-1.41,0-2.15-0.38-2.4-1.55c-0.1-0.47-0.22-0.98-0.39-1.53h-4.87
			c-0.31,0.94-0.55,2.27-0.71,3.08h-1.58c-1.25,0-1.8-0.64-1.8-1.6c0-1.89,2.68-9.06,5.13-11.42h1.51c1.37,0,2.27,0.64,2.74,1.36
			c1.35,2.08,3.48,7.23,4.11,11.66H242.23z M237.06,83.46c-0.61,1.08-1.23,2.6-1.64,3.89h3.23
			C238.24,86.07,237.63,84.5,237.06,83.46"/>
		<path class="st3" d="M247.51,82.27c-1.13,0-2.05-0.79-2.05-1.77c0-0.98,0.92-1.77,2.05-1.77c1.12,0,2.02,0.79,2.02,1.77
			C249.53,81.48,248.63,82.27,247.51,82.27 M249.35,93.39c-2.07,0-3.68-0.94-3.68-3.4v-6.81h0.96c2.21,0,2.93,0.58,2.93,2.47v3.81
			c0,0.93,0.47,1.21,1.55,1.21h0.47v1.06C251.58,92.97,250.56,93.39,249.35,93.39"/>
		<path class="st3" d="M93.96,31.95c0-0.67,0.09-1.25,0.28-1.74c0.19-0.49,0.43-0.9,0.73-1.22c0.3-0.32,0.65-0.57,1.04-0.73
			c0.4-0.17,0.8-0.28,1.21-0.34c0.31-0.06,0.68-0.12,1.11-0.18c0.43-0.06,0.96-0.11,1.61-0.16c0.64-0.05,1.43-0.08,2.36-0.11
			c0.93-0.03,2.06-0.04,3.38-0.04c2.84,0,5.2,0.31,7.09,0.94c1.89,0.63,3.41,1.45,4.56,2.48c1.15,1.03,1.97,2.2,2.46,3.53
			c0.49,1.33,0.73,2.7,0.73,4.11c0,1.62-0.27,3.11-0.8,4.45c-0.54,1.34-1.37,2.5-2.5,3.46c-1.14,0.96-2.59,1.71-4.37,2.25
			c-1.78,0.54-3.9,0.8-6.36,0.8c-0.57,0-1.12-0.01-1.65-0.05c-0.54-0.03-1.02-0.06-1.46-0.09c-0.44-0.03-0.81-0.07-1.11-0.11
			c-0.3-0.05-0.5-0.07-0.59-0.07v10.23h-7.7V31.95z M101.67,42.64c0.22,0.03,0.61,0.09,1.16,0.16c0.55,0.08,1.45,0.11,2.72,0.11
			c1.45,0,2.62-0.13,3.52-0.39c0.9-0.26,1.6-0.6,2.1-1.03c0.5-0.43,0.84-0.91,1.02-1.44c0.17-0.54,0.26-1.06,0.26-1.58
			c0-0.49-0.07-0.99-0.21-1.51c-0.14-0.52-0.45-1-0.92-1.45c-0.47-0.44-1.16-0.81-2.05-1.1c-0.9-0.29-2.1-0.43-3.62-0.43
			c-1.1,0-2,0.02-2.69,0.07c-0.69,0.05-1.12,0.08-1.28,0.11V42.64z"/>
		<path class="st3" d="M149.49,59.19c-0.19,0.06-0.61,0.13-1.28,0.21c-0.66,0.08-1.49,0.16-2.48,0.25c-0.99,0.09-2.13,0.17-3.4,0.23
			c-1.28,0.06-2.62,0.09-4.04,0.09c-2.4,0-4.38-0.2-5.96-0.62c-1.57-0.41-2.83-0.97-3.78-1.67c-0.95-0.7-1.61-1.52-1.99-2.45
			c-0.38-0.93-0.57-1.92-0.57-2.96c0-2.81,0.93-4.82,2.79-6.03c1.86-1.21,4.8-1.81,8.84-1.81c1.01,0,1.85,0.02,2.53,0.05
			c0.68,0.03,1.23,0.08,1.68,0.14c0-1.07-0.45-1.91-1.35-2.52c-0.9-0.61-2.39-0.92-4.46-0.92c-0.98,0-1.84,0.06-2.58,0.16
			c-0.74,0.11-1.37,0.24-1.89,0.39c-0.52,0.15-0.94,0.31-1.25,0.46c-0.31,0.15-0.54,0.28-0.66,0.37c-0.06-0.06-0.19-0.18-0.38-0.37
			c-0.19-0.18-0.38-0.42-0.57-0.71c-0.19-0.29-0.36-0.62-0.52-0.99c-0.16-0.37-0.24-0.76-0.24-1.19c0-2.66,2.8-3.99,8.41-3.99
			c1.83,0,3.54,0.16,5.15,0.48c1.6,0.32,3,0.87,4.18,1.65c1.18,0.78,2.11,1.81,2.79,3.1c0.68,1.28,1.02,2.89,1.02,4.82V59.19z
			 M141.88,49.61c-0.28-0.06-0.7-0.11-1.25-0.16c-0.55-0.05-1.38-0.07-2.48-0.07c-0.94,0-1.72,0.08-2.31,0.23
			c-0.6,0.15-1.06,0.36-1.4,0.62c-0.33,0.26-0.56,0.56-0.68,0.89c-0.13,0.34-0.19,0.69-0.19,1.06c0,0.28,0.05,0.57,0.14,0.87
			c0.09,0.31,0.3,0.58,0.61,0.83c0.31,0.24,0.79,0.45,1.42,0.62c0.63,0.17,1.46,0.25,2.5,0.25c0.82,0,1.57-0.02,2.27-0.07
			c0.69-0.05,1.15-0.1,1.37-0.16V49.61z"/>
		<path class="st3" d="M158.23,44.65c0-1.5,0.26-2.83,0.78-3.99c0.52-1.16,1.24-2.14,2.15-2.94c0.91-0.8,2.02-1.4,3.31-1.81
			c1.29-0.41,2.71-0.62,4.25-0.62c1.89,0,3.36,0.2,4.42,0.6c1.06,0.4,1.82,0.83,2.29,1.28c0.28,0.31,0.5,0.63,0.66,0.96
			c0.16,0.34,0.24,0.74,0.24,1.19c0,0.46-0.07,0.89-0.21,1.28c-0.14,0.4-0.31,0.75-0.52,1.06c-0.2,0.31-0.4,0.57-0.59,0.78
			c-0.19,0.21-0.33,0.37-0.43,0.46c-0.54-0.25-1.18-0.47-1.94-0.69c-0.76-0.21-1.59-0.32-2.51-0.32c-1.2,0-2.21,0.34-3.05,1.01
			c-0.84,0.67-1.25,1.79-1.25,3.35v13.07h-7.61V44.65z"/>
		<path class="st3" d="M182.47,28.79c0-1.19,0.36-2.03,1.09-2.52c0.72-0.49,1.68-0.73,2.88-0.73c0.85,0,1.62,0.1,2.31,0.3
			c0.69,0.2,1.14,0.33,1.32,0.39v17.5c0.57-0.46,1.17-0.94,1.82-1.44c0.65-0.5,1.28-1,1.89-1.51c0.61-0.5,1.2-0.97,1.75-1.42
			c0.55-0.44,1-0.81,1.35-1.12c0.47-0.4,0.89-0.74,1.25-1.03c0.36-0.29,0.74-0.53,1.13-0.71c0.4-0.18,0.81-0.32,1.25-0.41
			c0.44-0.09,0.98-0.14,1.61-0.14c0.63,0,1.21,0.09,1.75,0.28c0.54,0.18,1.01,0.4,1.42,0.66c0.41,0.26,0.76,0.54,1.04,0.83
			c0.28,0.29,0.49,0.54,0.61,0.76c-0.6,0.61-1.35,1.3-2.24,2.06c-0.9,0.76-1.83,1.52-2.79,2.26s-1.89,1.46-2.79,2.15
			c-0.9,0.69-1.63,1.26-2.2,1.71c1.95,1.71,3.93,3.68,5.93,5.9c2,2.22,3.8,4.48,5.41,6.78h-9.4c-0.63-0.83-1.32-1.67-2.08-2.53
			c-0.76-0.86-1.53-1.68-2.31-2.48c-0.79-0.8-1.56-1.56-2.32-2.28c-0.75-0.72-1.45-1.39-2.08-2v9.29h-7.61V28.79z"/>
		<path class="st3" d="M214.65,29.24c0-1.05,0.36-1.92,1.08-2.64c0.72-0.71,1.62-1.07,2.7-1.07c1.08,0,1.98,0.36,2.72,1.07
			c0.74,0.72,1.11,1.6,1.11,2.64c0,1.05-0.37,1.92-1.11,2.62c-0.74,0.7-1.64,1.05-2.72,1.05c-1.08,0-1.98-0.35-2.7-1.05
			C215.01,31.16,214.65,30.29,214.65,29.24"/>
		<path class="st3" d="M214.65,39.2c0-1.19,0.36-2.03,1.09-2.52c0.72-0.49,1.68-0.73,2.88-0.73c0.85,0,1.62,0.1,2.31,0.3
			c0.69,0.2,1.14,0.33,1.32,0.39v22.7h-7.61V39.2z"/>
		<path class="st3" d="M230.52,45.16c0-1.59,0.31-3,0.94-4.24c0.63-1.24,1.5-2.27,2.6-3.1c1.1-0.83,2.38-1.45,3.83-1.88
			c1.45-0.43,3.01-0.64,4.68-0.64c1.64,0,3.19,0.21,4.65,0.64c1.47,0.43,2.74,1.06,3.83,1.88c1.09,0.83,1.95,1.86,2.58,3.1
			c0.63,1.24,0.94,2.65,0.94,4.24v14.17h-7.61V46.86c0-1.62-0.38-2.82-1.13-3.6s-1.84-1.17-3.26-1.17c-2.96,0-4.44,1.59-4.44,4.77
			v12.48h-7.61V45.16z"/>
		<path class="st3" d="M266.53,61.62c0.09,0.06,0.35,0.17,0.76,0.32c0.41,0.15,0.94,0.31,1.58,0.48c0.64,0.17,1.4,0.32,2.27,0.46
			c0.86,0.14,1.8,0.21,2.81,0.21c1.01,0,1.94-0.11,2.81-0.32c0.86-0.22,1.61-0.57,2.22-1.08c0.61-0.51,1.09-1.15,1.44-1.93
			c0.35-0.78,0.52-1.75,0.52-2.91v-0.51c-0.16,0.15-0.42,0.37-0.78,0.64c-0.36,0.28-0.83,0.55-1.42,0.83
			c-0.58,0.28-1.27,0.52-2.05,0.74c-0.79,0.21-1.67,0.32-2.65,0.32c-1.7,0-3.27-0.25-4.7-0.76c-1.43-0.5-2.67-1.24-3.71-2.22
			c-1.04-0.98-1.84-2.18-2.41-3.6c-0.57-1.42-0.85-3.03-0.85-4.84c0-1.8,0.33-3.45,0.99-4.93c0.66-1.48,1.57-2.76,2.74-3.83
			c1.17-1.07,2.56-1.9,4.18-2.5c1.62-0.6,3.41-0.9,5.36-0.9c2.17,0,4.18,0.4,6.02,1.19c1.84,0.8,3.36,1.96,4.56,3.49
			c0.75,0.98,1.33,2.12,1.72,3.44c0.39,1.31,0.59,2.98,0.59,5v6.83c0,2.39-0.35,4.44-1.04,6.17c-0.69,1.73-1.65,3.15-2.88,4.27
			c-1.23,1.11-2.69,1.94-4.37,2.48c-1.68,0.54-3.52,0.8-5.5,0.8c-1.39,0-2.66-0.08-3.83-0.25c-1.17-0.17-2.2-0.37-3.1-0.6
			c-0.9-0.23-1.64-0.46-2.22-0.69c-0.58-0.23-0.97-0.41-1.16-0.53L266.53,61.62z M270.17,47.45c0,1.74,0.5,3.04,1.51,3.9
			c1.01,0.86,2.3,1.28,3.88,1.28c1.54,0,2.83-0.47,3.85-1.42c1.02-0.95,1.54-2.2,1.54-3.76c0-1.56-0.51-2.84-1.54-3.83
			c-1.02-0.99-2.31-1.49-3.85-1.49c-0.79,0-1.51,0.14-2.17,0.41c-0.66,0.28-1.23,0.66-1.7,1.15c-0.47,0.49-0.84,1.06-1.11,1.7
			C270.3,46.03,270.17,46.72,270.17,47.45"/>
		<path class="st3" d="M92.71,73.79c0-0.67,0.09-1.25,0.28-1.74c0.19-0.49,0.43-0.89,0.73-1.22c0.3-0.32,0.65-0.57,1.04-0.73
			c0.4-0.17,0.8-0.28,1.21-0.34c0.31-0.06,0.68-0.12,1.11-0.18c0.43-0.06,0.96-0.11,1.61-0.16c0.64-0.05,1.43-0.09,2.36-0.11
			c0.93-0.03,2.06-0.05,3.38-0.05c2.93,0,5.35,0.23,7.25,0.69c1.91,0.46,3.42,1.09,4.54,1.9c1.12,0.81,1.91,1.76,2.36,2.86
			c0.46,1.1,0.69,2.29,0.69,3.57c0,0.95-0.12,1.79-0.35,2.52c-0.24,0.73-0.54,1.38-0.9,1.95c-0.36,0.56-0.77,1.04-1.2,1.44
			c-0.44,0.4-0.88,0.72-1.32,0.96c0.5,0.18,1.04,0.46,1.61,0.83c0.57,0.37,1.09,0.83,1.56,1.4c0.47,0.57,0.87,1.25,1.18,2.07
			s0.47,1.75,0.47,2.82c0,1.41-0.22,2.69-0.66,3.83c-0.44,1.15-1.25,2.14-2.41,2.96c-1.17,0.83-2.77,1.46-4.82,1.91
			c-2.05,0.44-4.66,0.67-7.84,0.67c-1.57,0-3.05-0.02-4.44-0.07c-1.39-0.05-2.62-0.09-3.69-0.14c-1.07-0.05-1.94-0.1-2.6-0.16
			c-0.66-0.06-1.04-0.09-1.14-0.09V73.79z M107.27,82.04c0.79,0,1.44-0.09,1.96-0.25c0.52-0.17,0.94-0.4,1.25-0.69
			c0.31-0.29,0.54-0.61,0.66-0.96c0.12-0.35,0.19-0.71,0.19-1.08c0-0.4-0.07-0.8-0.21-1.19c-0.14-0.4-0.43-0.75-0.85-1.06
			c-0.43-0.31-1.02-0.55-1.8-0.73c-0.77-0.18-1.77-0.28-3-0.28c-1.29,0-2.42,0.04-3.38,0.11c-0.96,0.08-1.52,0.13-1.68,0.16v5.96
			H107.27z M100.42,94.75c0.16,0.03,0.68,0.09,1.58,0.16c0.9,0.08,2.24,0.11,4.04,0.11c1.23,0,2.23-0.08,3.02-0.23
			c0.79-0.15,1.42-0.37,1.89-0.64c0.47-0.28,0.8-0.61,0.99-1.01c0.19-0.4,0.29-0.86,0.29-1.38c0-0.4-0.06-0.78-0.19-1.15
			c-0.13-0.37-0.35-0.69-0.68-0.99c-0.33-0.29-0.77-0.52-1.32-0.69c-0.55-0.17-1.27-0.25-2.15-0.25h-7.47V94.75z"/>
		<path class="st3" d="M135,92.54c0.06,0.37,0.23,0.73,0.5,1.08c0.27,0.35,0.65,0.68,1.14,0.99c0.49,0.31,1.11,0.55,1.87,0.73
			c0.76,0.18,1.67,0.28,2.74,0.28c0.82,0,1.59-0.07,2.32-0.21c0.72-0.14,1.35-0.28,1.89-0.43c0.54-0.15,0.97-0.31,1.32-0.46
			c0.35-0.15,0.55-0.26,0.61-0.32l2.65,5.14c-0.25,0.15-0.67,0.37-1.25,0.64c-0.58,0.27-1.31,0.55-2.2,0.83
			c-0.88,0.28-1.91,0.51-3.09,0.71c-1.18,0.2-2.48,0.3-3.9,0.3c-1.77,0-3.42-0.28-4.96-0.83c-1.54-0.55-2.89-1.35-4.04-2.41
			s-2.05-2.35-2.72-3.88c-0.66-1.53-0.99-3.27-0.99-5.23c0-1.83,0.33-3.51,0.99-5.05c0.66-1.53,1.57-2.83,2.74-3.9
			c1.17-1.07,2.54-1.9,4.11-2.5c1.57-0.6,3.28-0.89,5.1-0.89c1.7,0,3.23,0.22,4.58,0.66c1.36,0.44,2.5,1.05,3.43,1.81
			c0.93,0.77,1.64,1.64,2.13,2.62c0.49,0.98,0.73,1.99,0.73,3.02c0,1.13-0.21,2.15-0.62,3.05c-0.41,0.9-1.14,1.67-2.2,2.29
			c-1.06,0.63-2.49,1.11-4.3,1.45c-1.81,0.34-4.12,0.5-6.92,0.5H135z M134.63,87.77c2.11,0,3.75-0.08,4.91-0.23
			c1.17-0.15,2.03-0.35,2.6-0.6s0.91-0.52,1.04-0.83s0.19-0.61,0.19-0.92c0-0.64-0.3-1.2-0.9-1.68c-0.6-0.47-1.5-0.71-2.69-0.71
			c-0.85,0-1.59,0.14-2.22,0.43c-0.63,0.29-1.16,0.67-1.58,1.12c-0.43,0.46-0.75,0.99-0.97,1.58S134.66,87.16,134.63,87.77"/>
		<path class="st3" d="M165.06,92.54c0.06,0.37,0.23,0.73,0.5,1.08c0.27,0.35,0.65,0.68,1.14,0.99c0.49,0.31,1.11,0.55,1.87,0.73
			c0.76,0.18,1.67,0.28,2.74,0.28c0.82,0,1.59-0.07,2.32-0.21c0.72-0.14,1.35-0.28,1.89-0.43c0.54-0.15,0.97-0.31,1.32-0.46
			c0.35-0.15,0.55-0.26,0.62-0.32l2.65,5.14c-0.25,0.15-0.67,0.37-1.25,0.64c-0.58,0.27-1.31,0.55-2.2,0.83s-1.91,0.51-3.09,0.71
			c-1.18,0.2-2.48,0.3-3.9,0.3c-1.77,0-3.42-0.28-4.96-0.83c-1.54-0.55-2.89-1.35-4.04-2.41s-2.05-2.35-2.72-3.88
			c-0.66-1.53-0.99-3.27-0.99-5.23c0-1.83,0.33-3.51,0.99-5.05c0.66-1.53,1.57-2.83,2.74-3.9c1.17-1.07,2.54-1.9,4.11-2.5
			c1.57-0.6,3.28-0.89,5.1-0.89c1.7,0,3.23,0.22,4.58,0.66c1.36,0.44,2.5,1.05,3.43,1.81c0.93,0.77,1.64,1.64,2.13,2.62
			c0.49,0.98,0.73,1.99,0.73,3.02c0,1.13-0.2,2.15-0.62,3.05c-0.41,0.9-1.14,1.67-2.2,2.29c-1.06,0.63-2.49,1.11-4.3,1.45
			c-1.81,0.34-4.12,0.5-6.92,0.5H165.06z M164.68,87.77c2.11,0,3.75-0.08,4.91-0.23c1.17-0.15,2.03-0.35,2.6-0.6
			c0.57-0.25,0.91-0.52,1.04-0.83s0.19-0.61,0.19-0.92c0-0.64-0.3-1.2-0.9-1.68c-0.6-0.47-1.5-0.71-2.69-0.71
			c-0.85,0-1.59,0.14-2.22,0.43c-0.63,0.29-1.16,0.67-1.58,1.12c-0.43,0.46-0.75,0.99-0.97,1.58S164.71,87.16,164.68,87.77"/>
		<path class="st3" d="M293.29,34.06c-2.61,0-4.73-2.13-4.73-4.74s2.13-4.74,4.73-4.74c2.61,0,4.73,2.13,4.73,4.74
			S295.89,34.06,293.29,34.06 M293.29,25.36c-2.17,0-3.94,1.77-3.94,3.95s1.77,3.95,3.94,3.95c2.17,0,3.94-1.77,3.94-3.95
			S295.46,25.36,293.29,25.36"/>
		<path class="st3" d="M294.55,31.78l-1.21-1.99h-0.86v1.99h-0.84v-4.93h1.75c1.1,0,1.93,0.36,1.93,1.43c0,0.76-0.44,1.22-1.12,1.42
			l1.31,2.09H294.55z M292.48,29.17h0.8c0.78,0,1.2-0.29,1.2-0.89c0-0.6-0.42-0.8-1.2-0.8h-0.8V29.17z"/>
	</g>
</g>
</svg>
