<?xml version="1.0" encoding="utf-8"?>
<!-- Generator: Adobe Illustrator 25.4.1, SVG Export Plug-In . SVG Version: 6.00 Build 0)  -->
<svg version="1.1" id="Layer_1" xmlns="http://www.w3.org/2000/svg" xmlns:xlink="http://www.w3.org/1999/xlink" x="0px" y="0px"
	 viewBox="0 0 298.02 79.86" style="enable-background:new 0 0 298.02 79.86;" xml:space="preserve">
<style type="text/css">
	.st0{fill:#FFFFFF;}
	.st1{fill:#F2B638;}
</style>
<g>
	<g>
		<g>
			<g>
				<path class="st0" d="M49.06,51.59c-1.4-2.62-9.19-16.69-16.03-29.04C26.47,10.75,13.42,4.06,0,5.63l0,0l39.64,74.22l15.33-24.8
					C54.97,55.06,51.63,56.4,49.06,51.59z"/>
				<path class="st1" d="M88.04,51.59c-1.4-2.62-9.19-16.69-16.03-29.04C65.46,10.75,52.42,4.06,39,5.63l40.36,73.07l14.63-23.65
					C93.96,55.06,90.62,56.4,88.04,51.59z"/>
			</g>
			<path class="st0" d="M80.56,6.25c3.39,1.9,5.67,4.86,5.67,4.86h17.17l3-4.86H80.56z"/>
			<polygon class="st0" points="94.32,25.75 97.32,20.91 91.65,20.91 			"/>
			<polygon class="st0" points="90.25,18.38 98.9,18.38 101.82,13.64 87.63,13.64 			"/>
		</g>
		<g>
			<path class="st0" d="M153.09,32.12h-4.27l0.99-11.32l-3.75,7.3h-2.93l-2.48-7.3l-0.99,11.32h-4.04l1.49-17.08h4.95l3.05,8.43
				l4.5-8.43h4.95L153.09,32.12z"/>
			<path class="st0" d="M172.42,32.12h-5.22l-4.22-6.26h-1.54l-0.56,6.26h-4.27l1.49-17.08h6.87c0.95,0,1.78,0.05,2.46,0.18
				c0.7,0.13,1.33,0.36,1.88,0.74c0.57,0.39,1.02,0.88,1.33,1.49s0.41,1.36,0.34,2.3c-0.11,1.31-0.5,2.37-1.17,3.18
				s-1.51,1.47-2.53,1.94L172.42,32.12z M166.55,20.28c0.04-0.43-0.02-0.79-0.14-1.11c-0.14-0.31-0.39-0.56-0.75-0.72
				c-0.25-0.11-0.56-0.18-0.88-0.22c-0.32-0.04-0.74-0.05-1.22-0.05h-1.44l-0.39,4.59h1.22c0.59,0,1.11-0.04,1.53-0.11
				c0.43-0.07,0.79-0.23,1.09-0.47c0.29-0.22,0.52-0.47,0.68-0.77C166.41,21.16,166.5,20.76,166.55,20.28z"/>
			<path class="st0" d="M177.61,32.12h-4.06l0.39-4.5H178L177.61,32.12z"/>
			<path class="st0" d="M153.67,45.03l-8.95,26.25h-7.23l-2.8-16.24l-5.51,16.24h-7.23l-4.34-26.25h6.84l2.08,17.62l5.96-17.62h6.55
				l2.64,17.62l5.35-17.62H153.67z"/>
			<path class="st0" d="M178.9,71.28h-8.04l-6.48-9.64h-2.37l-0.84,9.64h-6.57l2.3-26.25h10.57c1.45,0,2.73,0.09,3.79,0.27
				c1.06,0.18,2.03,0.56,2.91,1.13c0.88,0.59,1.56,1.36,2.05,2.28c0.47,0.92,0.65,2.1,0.52,3.52c-0.18,2.01-0.77,3.64-1.79,4.9
				c-1.02,1.26-2.31,2.24-3.89,3L178.9,71.28z M169.89,53.06c0.05-0.66-0.02-1.22-0.23-1.7c-0.22-0.48-0.59-0.84-1.17-1.09
				c-0.39-0.18-0.84-0.29-1.35-0.34c-0.5-0.05-1.13-0.07-1.88-0.07h-2.21l-0.61,7.07h1.88c0.92,0,1.7-0.05,2.35-0.16
				c0.65-0.11,1.22-0.34,1.69-0.72c0.45-0.32,0.81-0.72,1.04-1.18C169.66,54.41,169.82,53.8,169.89,53.06z"/>
			<path class="st0" d="M175.2,71.28l11.16-26.25h7.2l6.57,26.25h-6.78l-1.17-5.37h-8.25l-2.12,5.37H175.2z M191.15,61.16
				l-1.92-8.67l-3.45,8.67H191.15z"/>
			<path class="st0" d="M224.53,53.32c-0.11,1.22-0.39,2.39-0.88,3.5c-0.48,1.11-1.13,2.03-1.92,2.76
				c-0.48,0.47-1.02,0.88-1.58,1.27c-0.57,0.39-1.18,0.72-1.87,0.99c-0.66,0.27-1.4,0.48-2.17,0.63c-0.77,0.16-1.63,0.23-2.57,0.23
				h-3.46l-0.75,8.6h-6.6l2.3-26.25h10.19c1.53,0,2.82,0.14,3.89,0.41s2.03,0.72,2.87,1.31c0.93,0.66,1.62,1.54,2.06,2.64
				C224.52,50.48,224.68,51.79,224.53,53.32z M217.75,53.48c0.07-0.74-0.05-1.38-0.36-1.92c-0.31-0.54-0.7-0.9-1.17-1.09
				c-0.59-0.27-1.18-0.43-1.74-0.47c-0.57-0.04-1.35-0.05-2.31-0.05h-0.93l-0.68,7.86h0.47c0.63,0,1.22,0,1.76-0.02
				c0.56-0.02,1.04-0.05,1.45-0.13c0.36-0.05,0.74-0.18,1.15-0.34c0.41-0.16,0.74-0.36,0.95-0.57c0.48-0.43,0.83-0.88,1.02-1.36
				C217.55,54.91,217.68,54.27,217.75,53.48z"/>
			<path class="st0" d="M248.28,53.32c-0.11,1.22-0.39,2.39-0.88,3.5s-1.13,2.03-1.92,2.76c-0.48,0.47-1.02,0.88-1.58,1.27
				c-0.57,0.39-1.18,0.72-1.87,0.99c-0.66,0.27-1.4,0.48-2.17,0.63c-0.77,0.16-1.63,0.23-2.57,0.23h-3.46l-0.75,8.6h-6.6l2.3-26.25
				h10.19c1.53,0,2.82,0.14,3.89,0.41c1.08,0.27,2.03,0.72,2.87,1.31c0.93,0.66,1.62,1.54,2.06,2.64
				C248.26,50.48,248.42,51.79,248.28,53.32z M241.49,53.48c0.07-0.74-0.05-1.38-0.36-1.92c-0.31-0.54-0.7-0.9-1.17-1.09
				c-0.59-0.27-1.18-0.43-1.74-0.47c-0.57-0.04-1.35-0.05-2.31-0.05h-0.93l-0.68,7.86h0.47c0.63,0,1.22,0,1.76-0.02
				c0.56-0.02,1.04-0.05,1.45-0.13c0.36-0.05,0.74-0.18,1.15-0.34c0.41-0.16,0.74-0.36,0.95-0.57c0.48-0.43,0.83-0.88,1.02-1.36
				C241.29,54.91,241.42,54.27,241.49,53.48z"/>
			<path class="st0" d="M250.23,71.28l2.3-26.25h17.77l-0.43,5.01h-11.2l-0.39,4.61h10.32l-0.43,5.01h-10.32l-0.57,6.64h11.2
				l-0.43,5.01h-17.8V71.28z"/>
			<path class="st0" d="M296.75,71.28h-8.04l-6.48-9.64h-2.37l-0.84,9.64h-6.57l2.3-26.25h10.57c1.45,0,2.73,0.09,3.79,0.27
				s2.03,0.56,2.91,1.13c0.88,0.59,1.56,1.36,2.05,2.28s0.65,2.1,0.52,3.52c-0.18,2.01-0.77,3.64-1.79,4.9
				c-1.02,1.26-2.31,2.24-3.89,3L296.75,71.28z M287.72,53.06c0.05-0.66-0.02-1.22-0.23-1.7c-0.22-0.48-0.59-0.84-1.17-1.09
				c-0.39-0.18-0.84-0.29-1.35-0.34c-0.5-0.05-1.13-0.07-1.88-0.07h-2.21l-0.61,7.07h1.88c0.92,0,1.7-0.05,2.35-0.16
				c0.65-0.11,1.22-0.34,1.69-0.72c0.45-0.32,0.81-0.72,1.04-1.18C287.5,54.41,287.67,53.8,287.72,53.06z"/>
		</g>
	</g>
	<g>
		<path class="st0" d="M187.87,25.99h-4.65l1.29-5.47H189L187.87,25.99z M183.82,19.67V0.36h10.55v19.33h-10.55V19.67z M189.83,3.16
			h-1.53v2.76h1.53V3.16z M189.83,8.63h-1.53v2.76h1.53V8.63z M189.83,14.11h-1.53v2.75h1.53V14.11z M190.62,25.99l-1.27-5.47h4.49
			l1.24,5.47H190.62z M204.58,7.52v5.33h4.54v13.14h-13.76V12.85h3.84V0.05h5.38V4.7h5.04v2.8h-5.04V7.52z M203.84,15.67h-3.21v7.48
			h3.21V15.67z"/>
		<path class="st0" d="M218.13,31.96l-0.77-2.17l-0.59,2.17h-4.31l0.97-4.22V6.33h9.42v25.63H218.13z M218.68,22.59h-1.02v5.98
			l-0.14,0.59h1.18v-6.57H218.68z M218.68,9.19h-1.02v3.86h1.02V9.19z M218.68,15.88h-1.02v3.91h1.02V15.88z M233.11,31.96
			l-2.03-2.24l-1.83,2.24h-6.12l4.4-5.38h-4.13v-2.75h5.13v-1.24h-4.49V12.4h14.05v10.19h-4.49v1.24h5.42v2.75h-5.46l-0.61,0.79
			h2.48l4.07,4.59H233.11z M236.81,10.48v1.33h-4.88v-1.33h-1.74v1.33h-4.97v-1.33h-1.83V7.72h1.83V6.03h4.97v1.69h1.74V6.03h4.88
			v1.69h2.26v2.76H236.81z M233.02,15.02h-3.98v1.18h3.98V15.02z M233.02,18.74h-3.98v1.18h3.98V18.74z"/>
		<path class="st0" d="M248.08,10.07h0.95v15.9h-5.42V11.54h-1.69L245.78,0h5.65L248.08,10.07z M267.35,12.26v13.73h-8.49
			l-1.24-2.94h4.27l0.04-9.65h-2.39L255.09,26h-5.65l4.4-12.62h-2.24v-1.13h-2.33L253.03,0h5.56l-3.21,10.39h7.34L259.6,0h5.55
			l3.73,12.26H267.35z"/>
		<path class="st0" d="M287.7,21.3v10.75h-9.55l-1.53-3h5.28V21.3h-10.23v-3h10.23v-3.28l6.57-5.65h-15.15V6.33h22.83v3.12
			l-8.45,7.27v1.56h10.32v3H287.7V21.3z"/>
	</g>
</g>
</svg>
