<?xml version="1.0" encoding="utf-8"?>
<!-- Generator: Adobe Illustrator 25.4.1, SVG Export Plug-In . SVG Version: 6.00 Build 0)  -->
<svg version="1.1" id="Layer_1" xmlns="http://www.w3.org/2000/svg" xmlns:xlink="http://www.w3.org/1999/xlink" x="0px" y="0px"
	 viewBox="0 0 298.02 91.36" style="enable-background:new 0 0 298.02 91.36;" xml:space="preserve">
<style type="text/css">
	.st0{fill:#FFFFFF;}
	.st1{fill:#F8C42B;}
	.st2{fill:#0D1216;}
</style>
<g>
	<g>
		<g>
			<path class="st0" d="M291.24,25.94c-3.74,0-6.78-3.04-6.78-6.78s3.04-6.78,6.78-6.78s6.78,3.04,6.78,6.78
				S294.98,25.94,291.24,25.94z M291.24,13.72c-3,0-5.44,2.44-5.44,5.44s2.44,5.44,5.44,5.44s5.44-2.44,5.44-5.44
				S294.24,13.72,291.24,13.72z"/>
		</g>
		<g>
			<path class="st0" d="M289.94,19.9v2.96h-1.56v-7.39h3.25c1.61,0,2.48,0.89,2.48,2.03c0,0.99-0.54,1.53-1.07,1.75
				c0.37,0.13,0.92,0.52,0.92,1.84v0.37c0,0.5,0,1.06,0.11,1.41h-1.51c-0.13-0.32-0.15-0.87-0.15-1.66v-0.11
				c0-0.81-0.2-1.19-1.4-1.19H289.94z M289.94,18.63h1.34c0.87,0,1.21-0.33,1.21-0.95c0-0.6-0.39-0.94-1.17-0.94h-1.38V18.63z"/>
		</g>
	</g>
	<g>
		<path class="st0" d="M128.45,61.05c-0.4-0.09-0.69-0.29-0.9-0.6l-0.94-1.34h3.87c2.04,0,3.33-0.5,3.86-1.5
			c0.53-1,0.8-2.18,0.8-3.55V40.7h-16.22v-1.88h17.01v-4.59h-4.77v-2.78h4.46v-4.51h-4.46v-1.96h-5.64v1.96h-18.99v-1.81h-5.64v1.81
			h-4.66v4.51h4.66v2.78h-4.6v4.59h16.9v1.88H97.03v18.41h10.56l-1.05,1.27c-0.36,0.45-0.8,0.79-1.31,1.01
			c-0.52,0.22-1.31,0.33-2.39,0.33h-5.88v3.96h7.08c1.81,0,3.02-0.05,3.65-0.16c0.63-0.1,1.23-0.34,1.81-0.74
			c0.57-0.4,1.64-1.6,3.2-3.63l1.57-2.03h5.81l2.49,4.18c0.41,0.7,0.89,1.22,1.43,1.56c0.54,0.34,1.11,0.53,1.69,0.56
			c0.57,0.03,2.12,0.04,4.64,0.04h5.66v-4.26h-5.4C129.56,61.19,128.84,61.15,128.45,61.05 M113.19,54.72h-10.56l-0.05-2.8h10.61
			V54.72z M113.19,47.76h-10.52v-2.71h10.52V47.76z M129.49,47.76h-10.57v-2.71h10.57V47.76z M106.52,31.45h18.99v2.78h-18.99V31.45
			z M118.92,54.72v-2.8h10.75l-0.04,1.19c-0.04,1.08-0.58,1.61-1.6,1.61H118.92z"/>
		<polygon class="st0" points="177.87,42.43 172.56,42.43 172.56,44.31 165.04,44.31 165.04,48.81 172.56,48.81 172.56,51.48 
			165.04,51.48 165.04,56.07 172.56,56.07 172.56,58.56 164.84,58.56 164.84,63.07 172.56,63.07 172.56,65.78 177.87,65.78 
			177.87,63.07 185.24,63.07 185.24,58.56 177.87,58.56 177.87,56.07 185.24,56.07 185.24,51.48 177.87,51.48 177.87,48.81 
			185.24,48.81 185.24,44.31 177.87,44.31 		"/>
		<path class="st0" d="M173.83,24.85h-5.78l-0.94,1.49c-0.29,0.45-0.53,0.75-0.73,0.89c-0.19,0.14-0.48,0.21-0.84,0.21h-0.78v4.11
			h0.09l3.83,0.02c0.51-0.03,0.9-0.11,1.17-0.25c0.27-0.14,0.62-0.44,1.04-0.91h7.28l-3.32,2.74l-1.62-1.01h-7.11l4.85,3.87
			l-1.71,1.19c-0.69,0.48-1.11,0.75-1.25,0.78c-0.14,0.04-0.93,0.05-2.35,0.05h-0.61v4.51h0.68c2.78,0,4.43-0.05,4.92-0.16
			c0.49-0.1,1.31-0.62,2.42-1.55l2.23-1.84l3.54,2.45c0.81,0.57,2.01,0.86,3.58,0.86h2.6v-4.62l-1.22,0.02
			c-1.21,0.02-2.12-0.19-2.73-0.64l-1.71-1.22l5.87-5.19v-4.75h-11.92L173.83,24.85z"/>
		<path class="st0" d="M159.64,59.05c0,0.29-0.1,0.55-0.29,0.78c-0.2,0.23-0.53,0.35-1,0.35h-1.61v-8.81h2.66
			c2.04,0,3.25-0.56,3.65-1.69c0.39-1.12,0.6-2.19,0.61-3.21V28.16h-6.93V24.9h-4.2v3.25h-7.02v23.22h7.02v8.81h-6.71v4.9h14.63
			c0.66,0,1.29-0.17,1.88-0.52c0.58-0.35,0.96-0.78,1.13-1.27c0.17-0.5,0.26-1.23,0.26-2.21v-5.62h-4.09V59.05z M156.74,32.84h2.36
			v12.47c0,0.64-0.09,1.07-0.28,1.26c-0.18,0.2-0.54,0.3-1.1,0.3h-0.99V32.84z M152.54,46.86h-2.91V32.83h2.91V46.86z"/>
		<path class="st0" d="M195.69,58.17c-0.02,0.52-0.09,0.9-0.18,1.13c-0.1,0.22-0.24,0.34-0.43,0.34h-0.78v4.77h1.51
			c1.69,0,2.74-0.35,3.15-1.05c0.41-0.69,0.68-1.44,0.82-2.23c0.13-0.78,0.22-1.43,0.25-1.95l0.93-17.6h-4.57L195.69,58.17z"/>
		<path class="st0" d="M213.2,34.56h-6.1v-2.91h0.31c1.21,0,2.19-0.08,2.93-0.25c0.75-0.16,1.3-0.49,1.67-0.95
			c0.37-0.46,0.62-1.01,0.76-1.63c0.14-0.62,0.21-1.27,0.21-1.96v-1.84h-5.31v0.74c0,0.46-0.07,0.77-0.21,0.94
			c-0.13,0.17-0.44,0.26-0.9,0.26h-11.9v4.68h7.32v2.91h-7.57v4.79h7.57v26.19h5.12V39.35h6.1V34.56z"/>
		<path class="st0" d="M233.11,26.03h-18.19v34.09h-0.4v-0.44h-0.48c-0.21,0-0.36-0.11-0.46-0.34c-0.09-0.23-0.15-0.6-0.16-1.13
			l-0.69-16.6h-4.6l0.94,17.6c0.03,0.81,0.11,1.56,0.23,2.24c0.13,0.68,0.42,1.34,0.89,1.99c0.46,0.65,1.51,0.97,3.13,0.97h0.57
			v0.39h20.44v-4.68h-1.22V26.03z M227.99,60.12h-7.87v-6.91h7.87V60.12z M227.99,48.53h-7.87v-6.69h7.87V48.53z M227.99,37.16
			h-7.87v-6.45h7.87V37.16z"/>
		<path class="st0" d="M283.08,31.34V26.9H266.7v-1.93h-5.49v1.93h-16.57v4.44h16.57v3.15h-16.57v21.63h16.57v2.95h-16.57v4.79
			h16.57v1.95h5.49v-1.95h16.38v-4.79H266.7v-2.95h11.48c1.65,0,2.85-0.5,3.61-1.51c0.75-1.01,1.13-2.39,1.13-4.13V34.49H266.7
			v-3.15H283.08z M261.21,51.53h-11.15v-4.22h11.15V51.53z M261.21,42.87h-11.15v-3.93h11.15V42.87z M277.48,49.67
			c0,0.69-0.12,1.16-0.36,1.44c-0.25,0.28-0.7,0.42-1.37,0.42h-9.05v-4.22h10.78V49.67z M277.48,42.87H266.7v-3.93h10.78V42.87z"/>
	</g>
	<g>
		<polygon class="st1" points="40.34,91.36 0,68.53 0,22.83 40.34,0 80.69,22.83 80.69,68.53 		"/>
		<polygon class="st2" points="62.93,40.34 62.93,34.09 51.39,27.41 51.39,33.69 		"/>
		<polygon class="st2" points="51.39,37.93 51.39,40.74 51.39,43.24 62.93,49.89 62.93,47.39 62.93,44.58 		"/>
		<polygon class="st2" points="51.39,47.47 51.39,54.04 39.82,47.39 28.25,54.04 28.25,40.74 28.25,27.41 16.72,34.09 16.72,47.39 
			16.72,60.69 28.25,67.36 39.82,60.69 51.39,67.36 62.93,60.69 62.93,54.15 		"/>
		<path class="st2" d="M40.34,85.2L5.48,65.47V25.91L40.34,6.18L75.2,25.91v39.54L40.34,85.2z M9.97,62.85l30.37,17.19l30.37-17.19
			V28.51L40.34,11.32L9.97,28.51V62.85z"/>
	</g>
	<g>
		<path class="st0" d="M170.47,80.83c-0.04-0.34-0.12-0.71-0.22-1.13l-0.8-3.11c-0.11-0.41-0.19-0.9-0.3-1.6
			c-0.06,0.43-0.19,1.1-0.32,1.6l-0.78,3.12c-0.14,0.53-0.2,0.84-0.23,1.12h-2.11c-0.05-0.31-0.11-0.53-0.26-1.14l-1.69-6.35
			c-0.15-0.54-0.3-1.03-0.4-1.31h2.41c0.01,0.38,0.06,0.72,0.15,1.16l0.68,3.22c0.03,0.16,0.11,0.66,0.23,1.49
			c0.16-0.89,0.23-1.27,0.3-1.49l0.85-3.28c0.13-0.48,0.19-0.8,0.23-1.1h1.88c0.04,0.28,0.11,0.57,0.24,1.07l0.86,3.26
			c0.08,0.34,0.16,0.69,0.3,1.54c0.02-0.2,0.02-0.2,0.08-0.65c0.03-0.23,0.11-0.74,0.15-0.91l0.67-3.15
			c0.11-0.49,0.15-0.79,0.16-1.16h2.4c-0.11,0.29-0.25,0.78-0.39,1.31l-1.69,6.34c-0.14,0.5-0.23,0.9-0.26,1.15H170.47z"/>
		<path class="st0" d="M181.04,80.83c-0.08-0.51-0.15-0.78-0.25-1.14l-0.29-0.9h-3.02l-0.29,0.9c-0.14,0.42-0.21,0.75-0.26,1.14
			h-2.48c0.16-0.32,0.25-0.57,0.51-1.29l2.29-6.37c0.19-0.52,0.29-0.84,0.34-1.14h2.76c0.07,0.31,0.15,0.58,0.36,1.14l2.3,6.37
			c0.2,0.56,0.37,0.99,0.51,1.29H181.04z M178.98,73.83l-0.98,3.17h1.99L178.98,73.83z"/>
		<path class="st0" d="M186.18,77.96c0.04,0.38,0.12,0.57,0.28,0.78c0.25,0.32,0.7,0.5,1.24,0.5c0.81,0,1.3-0.36,1.3-0.95
			c0-0.33-0.17-0.61-0.44-0.74c-0.22-0.11-0.49-0.18-1.59-0.43c-0.97-0.21-1.31-0.34-1.7-0.61c-0.67-0.47-1.03-1.17-1.03-2.03
			c0-1.63,1.31-2.66,3.4-2.66c1.34,0,2.37,0.41,2.94,1.21c0.26,0.35,0.39,0.67,0.53,1.27l-2.24,0.24c-0.13-0.69-0.51-0.97-1.31-0.97
			c-0.65,0-1.12,0.35-1.12,0.84c0,0.3,0.16,0.52,0.5,0.68c0.21,0.1,0.21,0.1,1.46,0.35c0.8,0.17,1.31,0.35,1.71,0.6
			c0.76,0.48,1.14,1.19,1.14,2.16c0,0.79-0.25,1.47-0.74,1.95c-0.61,0.59-1.54,0.9-2.78,0.9c-0.9,0-1.79-0.19-2.36-0.52
			c-0.53-0.3-0.92-0.75-1.14-1.35c-0.11-0.25-0.16-0.5-0.23-0.98L186.18,77.96z"/>
		<path class="st0" d="M192.33,80.83c0.06-0.47,0.08-0.94,0.08-1.57v-5.72c0-0.57-0.02-1.05-0.08-1.54c0.5,0.02,0.88,0.03,1.56,0.03
			h2.32c2.1,0,3.25,1.01,3.25,2.85c0,1.88-1.21,3-3.26,3h-1.67v1.35c0,0.62,0.03,1.14,0.08,1.6H192.33z M196.1,76.08
			c0.74,0,1.17-0.41,1.17-1.14c0-0.73-0.41-1.11-1.17-1.11h-1.58v2.25H196.1z"/>
		<path class="st0" d="M209.57,75.09c-0.2-0.96-0.76-1.44-1.67-1.44c-1.29,0-2.04,1.02-2.04,2.76c0,1.72,0.78,2.77,2.09,2.77
			c0.58,0,1.08-0.24,1.39-0.67c0.18-0.25,0.25-0.47,0.32-0.91l2.2,0.33c-0.2,0.9-0.43,1.42-0.88,1.94
			c-0.66,0.75-1.68,1.15-2.96,1.15c-1.29,0-2.38-0.4-3.13-1.16c-0.78-0.79-1.23-2.03-1.23-3.45c0-1.44,0.44-2.66,1.28-3.48
			c0.73-0.71,1.8-1.1,3.04-1.1c1.37,0,2.43,0.47,3.12,1.39c0.34,0.43,0.52,0.83,0.66,1.45L209.57,75.09z"/>
		<path class="st0" d="M218.86,80.83c-0.08-0.51-0.15-0.78-0.25-1.14l-0.29-0.9h-3.02l-0.29,0.9c-0.14,0.42-0.21,0.75-0.26,1.14
			h-2.48c0.16-0.32,0.25-0.57,0.51-1.29l2.29-6.37c0.19-0.52,0.29-0.84,0.34-1.14h2.76c0.07,0.31,0.15,0.58,0.36,1.14l2.3,6.37
			c0.2,0.56,0.37,0.99,0.51,1.29H218.86z M216.8,73.83l-0.98,3.17h1.99L216.8,73.83z"/>
		<path class="st0" d="M227.41,80.83c-0.06-0.34-0.19-0.77-0.52-1.65c-0.34-0.92-0.47-1.16-0.73-1.4c-0.22-0.2-0.49-0.29-0.83-0.29
			h-1.08v1.74c0,0.72,0.02,1.11,0.08,1.6h-2.27c0.06-0.49,0.08-0.8,0.08-1.59v-5.69c0-0.66-0.02-1.05-0.08-1.56
			c0.47,0.02,0.86,0.03,1.58,0.03h2.75c1.71,0,2.71,0.89,2.71,2.41c0,0.75-0.21,1.34-0.62,1.74c-0.26,0.24-0.49,0.36-1.01,0.53
			c0.54,0.17,0.78,0.41,1.12,1.16c0.16,0.34,0.31,0.7,0.78,1.84c0.12,0.3,0.24,0.56,0.51,1.12H227.41z M225.91,75.68
			c0.62,0,1.01-0.38,1.01-0.98c0-0.59-0.34-0.9-0.99-0.9h-1.66v1.88H225.91z"/>
		<path class="st0" d="M239.63,80.83c-0.06-0.34-0.19-0.77-0.52-1.65c-0.34-0.92-0.47-1.16-0.73-1.4c-0.22-0.2-0.49-0.29-0.83-0.29
			h-1.08v1.74c0,0.72,0.02,1.11,0.08,1.6h-2.27c0.06-0.49,0.08-0.8,0.08-1.59v-5.69c0-0.66-0.02-1.05-0.08-1.56
			c0.47,0.02,0.86,0.03,1.58,0.03h2.75c1.71,0,2.71,0.89,2.71,2.41c0,0.75-0.21,1.34-0.62,1.74c-0.26,0.24-0.49,0.36-1.01,0.53
			c0.54,0.17,0.78,0.41,1.12,1.16c0.16,0.34,0.31,0.7,0.78,1.84c0.12,0.3,0.24,0.56,0.51,1.12H239.63z M238.13,75.68
			c0.62,0,1.01-0.38,1.01-0.98c0-0.59-0.34-0.9-0.99-0.9h-1.66v1.88H238.13z"/>
		<path class="st0" d="M249.62,80.9c-0.46-0.05-0.84-0.07-1.75-0.07h-3.33c-0.8,0-1.1,0.01-1.56,0.03c0.06-0.42,0.08-0.81,0.08-1.54
			v-5.78c0-0.66-0.02-1.03-0.08-1.54c0.43,0.02,0.73,0.03,1.56,0.03h3.38c0.72,0,1.08-0.02,1.58-0.07v1.98
			c-0.49-0.05-0.87-0.07-1.58-0.07h-2.75v1.56h2.29c0.7,0,0.95-0.01,1.59-0.07v1.96c-0.5-0.05-0.86-0.07-1.59-0.07h-2.29V79h2.73
			c0.8,0,1.27-0.02,1.72-0.07V80.9z"/>
		<path class="st0" d="M255.75,76.35c0.31,0.46,0.51,0.79,0.76,1.26c-0.04-0.49-0.06-0.97-0.06-1.57v-2.41
			c0-0.7-0.02-1.12-0.08-1.61h2.25c-0.06,0.48-0.08,0.92-0.08,1.61v5.62c0,0.65,0.03,1.13,0.08,1.58h-2.32
			c-0.19-0.4-0.43-0.79-0.79-1.34l-1.96-2.95c-0.29-0.42-0.47-0.74-0.76-1.3c0.05,0.48,0.07,1.06,0.07,1.58v2.37
			c0,0.73,0.02,1.2,0.08,1.65h-2.25c0.06-0.41,0.08-0.88,0.08-1.66V73.6c0-0.61-0.02-1.09-0.08-1.58h2.3
			c0.11,0.29,0.34,0.71,0.75,1.32L255.75,76.35z"/>
		<path class="st0" d="M264.46,79.23c0,0.63,0.02,1.1,0.08,1.6h-2.34c0.06-0.5,0.08-0.93,0.08-1.6V73.9h-1.25
			c-0.67,0-0.85,0.01-1.6,0.07v-2.02c0.35,0.04,0.93,0.07,1.58,0.07h4.63c0.74,0,1.16-0.02,1.65-0.07v2.02
			c-0.48-0.05-0.89-0.07-1.65-0.07h-1.2V79.23z"/>
		<path class="st0" d="M273.27,80.83c-0.08-0.51-0.15-0.78-0.25-1.14l-0.29-0.9h-3.02l-0.29,0.9c-0.14,0.42-0.21,0.75-0.26,1.14
			h-2.48c0.16-0.32,0.25-0.57,0.51-1.29l2.29-6.37c0.19-0.52,0.29-0.84,0.34-1.14h2.76c0.07,0.31,0.15,0.58,0.36,1.14l2.3,6.37
			c0.2,0.56,0.37,0.99,0.51,1.29H273.27z M271.21,73.83l-0.98,3.17h1.99L271.21,73.83z"/>
		<path class="st0" d="M278.04,80.83c-0.73,0-1.16,0.01-1.57,0.03c0.06-0.37,0.08-0.84,0.08-1.54v-5.59c0-0.74-0.02-1.2-0.08-1.7
			h2.31c-0.07,0.55-0.08,0.85-0.08,1.67v5.25h2.56c0.9,0,1.26-0.01,1.76-0.07v2.03c-0.39-0.05-0.91-0.07-1.76-0.07H278.04z"/>
	</g>
</g>
</svg>
