<?xml version="1.0" encoding="utf-8"?>
<!-- Generator: Adobe Illustrator 25.4.1, SVG Export Plug-In . SVG Version: 6.00 Build 0)  -->
<svg version="1.1" id="Layer_1" xmlns="http://www.w3.org/2000/svg" xmlns:xlink="http://www.w3.org/1999/xlink" x="0px" y="0px"
	 viewBox="0 0 278.22 74.55" style="enable-background:new 0 0 278.22 74.55;" xml:space="preserve">
<style type="text/css">
	.st0{fill:#FFFFFF;}
</style>
<g>
	<g>
		<g>
			<g>
				<path d="M45.8,48.17c-1.31-2.45-8.58-15.58-14.96-27.11C24.71,10.04,12.53,3.79,0,5.26l0,0l37.01,69.29L51.32,51.4
					C51.32,51.4,48.2,52.66,45.8,48.17z"/>
				<path class="st0" d="M82.19,48.17c-1.31-2.45-8.58-15.58-14.96-27.11C61.12,10.04,48.94,3.79,36.4,5.26l37.68,68.22L87.74,51.4
					C87.72,51.4,84.6,52.66,82.19,48.17z"/>
			</g>
			<path d="M75.21,5.83c3.17,1.78,5.29,4.54,5.29,4.54h16.03l2.8-4.54H75.21z"/>
			<polygon points="88.05,24.04 90.85,19.52 85.56,19.52 			"/>
			<polygon points="84.25,17.16 92.33,17.16 95.06,12.73 81.81,12.73 			"/>
		</g>
		<g>
			<path d="M142.92,29.99h-3.99l0.92-10.57l-3.5,6.82h-2.73l-2.31-6.82l-0.92,10.57h-3.77l1.39-15.95h4.62l2.85,7.87l4.21-7.87h4.62
				L142.92,29.99z"/>
			<path d="M160.96,29.99h-4.88l-3.94-5.85h-1.44l-0.52,5.85h-3.99l1.39-15.95h6.42c0.89,0,1.66,0.05,2.3,0.17
				c0.65,0.12,1.24,0.34,1.76,0.69c0.54,0.37,0.95,0.82,1.24,1.39c0.28,0.57,0.39,1.27,0.32,2.14c-0.1,1.22-0.47,2.21-1.09,2.97
				c-0.62,0.75-1.41,1.37-2.36,1.81L160.96,29.99z M155.49,18.93c0.03-0.4-0.02-0.74-0.13-1.04c-0.13-0.28-0.37-0.52-0.7-0.67
				c-0.23-0.1-0.52-0.17-0.82-0.2s-0.69-0.05-1.14-0.05h-1.34l-0.37,4.29h1.14c0.55,0,1.04-0.03,1.42-0.1
				c0.4-0.07,0.74-0.22,1.02-0.44c0.27-0.2,0.49-0.44,0.64-0.72C155.35,19.75,155.44,19.38,155.49,18.93z"/>
			<path d="M165.81,29.99h-3.79l0.37-4.21h3.79L165.81,29.99z"/>
			<path d="M143.46,42.03l-8.36,24.51h-6.75l-2.61-15.16l-5.14,15.16h-6.75l-4.05-24.51h6.38l1.94,16.45l5.56-16.45h6.11l2.46,16.45
				l4.99-16.45H143.46z"/>
			<path d="M167.01,66.54h-7.51l-6.05-9h-2.21l-0.79,9h-6.13l2.14-24.51h9.87c1.36,0,2.55,0.08,3.53,0.25
				c0.99,0.17,1.89,0.52,2.71,1.06c0.82,0.55,1.46,1.27,1.91,2.13c0.44,0.85,0.6,1.96,0.49,3.28c-0.17,1.88-0.72,3.4-1.68,4.57
				c-0.95,1.17-2.16,2.09-3.64,2.8L167.01,66.54z M158.6,49.54c0.05-0.62-0.02-1.14-0.22-1.59s-0.55-0.79-1.09-1.02
				c-0.37-0.17-0.79-0.27-1.26-0.32c-0.47-0.05-1.06-0.07-1.76-0.07h-2.06l-0.57,6.6h1.76c0.85,0,1.59-0.05,2.19-0.15
				c0.6-0.1,1.14-0.32,1.57-0.67c0.42-0.3,0.75-0.67,0.97-1.11C158.38,50.8,158.54,50.23,158.6,49.54z"/>
			<path d="M163.56,66.54l10.42-24.51h6.72l6.13,24.51h-6.33l-1.09-5.01h-7.71l-1.98,5.01H163.56z M178.46,57.09L176.66,49
				l-3.22,8.09H178.46z"/>
			<path d="M209.62,49.77c-0.1,1.14-0.37,2.23-0.82,3.27c-0.45,1.04-1.06,1.89-1.79,2.58c-0.45,0.44-0.95,0.82-1.47,1.19
				c-0.54,0.37-1.11,0.67-1.74,0.92c-0.62,0.25-1.31,0.45-2.03,0.59c-0.72,0.15-1.52,0.22-2.4,0.22h-3.23l-0.7,8.02h-6.17
				l2.14-24.51h9.52c1.42,0,2.63,0.13,3.64,0.39c1.01,0.25,1.89,0.67,2.68,1.22c0.87,0.62,1.51,1.44,1.93,2.46
				C209.6,47.13,209.75,48.35,209.62,49.77z M203.28,49.92c0.07-0.69-0.05-1.29-0.34-1.79c-0.28-0.5-0.65-0.84-1.09-1.02
				c-0.55-0.25-1.11-0.4-1.63-0.44c-0.54-0.03-1.26-0.05-2.16-0.05h-0.87l-0.64,7.34H197c0.59,0,1.14,0,1.64-0.02
				c0.52-0.02,0.97-0.05,1.36-0.12c0.34-0.05,0.69-0.17,1.07-0.32c0.39-0.15,0.69-0.34,0.89-0.54c0.45-0.4,0.77-0.82,0.95-1.27
				C203.1,51.26,203.22,50.66,203.28,49.92z"/>
			<path d="M231.78,49.77c-0.1,1.14-0.37,2.23-0.82,3.27c-0.45,1.04-1.06,1.89-1.79,2.58c-0.45,0.44-0.95,0.82-1.47,1.19
				c-0.54,0.37-1.11,0.67-1.74,0.92c-0.62,0.25-1.31,0.45-2.03,0.59c-0.72,0.15-1.52,0.22-2.4,0.22h-3.23l-0.7,8.02h-6.17
				l2.14-24.51h9.52c1.42,0,2.63,0.13,3.64,0.39c1.01,0.25,1.89,0.67,2.68,1.22c0.87,0.62,1.51,1.44,1.93,2.46
				C231.76,47.13,231.91,48.35,231.78,49.77z M225.45,49.92c0.07-0.69-0.05-1.29-0.34-1.79c-0.28-0.5-0.65-0.84-1.09-1.02
				c-0.55-0.25-1.11-0.4-1.63-0.44c-0.54-0.03-1.26-0.05-2.16-0.05h-0.87l-0.64,7.34h0.44c0.59,0,1.14,0,1.64-0.02
				c0.52-0.02,0.97-0.05,1.36-0.12c0.34-0.05,0.69-0.17,1.07-0.32c0.39-0.15,0.69-0.34,0.89-0.54c0.45-0.4,0.77-0.82,0.95-1.27
				C225.26,51.26,225.38,50.66,225.45,49.92z"/>
			<path d="M233.61,66.54l2.14-24.51h16.59l-0.4,4.67h-10.45l-0.37,4.31h9.63l-0.4,4.67h-9.63l-0.54,6.2h10.45l-0.4,4.67h-16.62
				V66.54z"/>
			<path d="M277.03,66.54h-7.51l-6.05-9h-2.21l-0.79,9h-6.13l2.14-24.51h9.87c1.36,0,2.55,0.08,3.53,0.25s1.89,0.52,2.71,1.06
				c0.82,0.55,1.46,1.27,1.91,2.13c0.45,0.85,0.6,1.96,0.49,3.28c-0.17,1.88-0.72,3.4-1.68,4.57c-0.95,1.17-2.16,2.09-3.64,2.8
				L277.03,66.54z M268.6,49.54c0.05-0.62-0.02-1.14-0.22-1.59c-0.2-0.45-0.55-0.79-1.09-1.02c-0.37-0.17-0.79-0.27-1.26-0.32
				c-0.47-0.05-1.06-0.07-1.76-0.07h-2.06l-0.57,6.6h1.76c0.85,0,1.59-0.05,2.19-0.15s1.14-0.32,1.57-0.67
				c0.42-0.3,0.75-0.67,0.97-1.11C268.4,50.8,268.55,50.23,268.6,49.54z"/>
		</g>
	</g>
	<g>
		<path d="M175.39,24.26h-4.34l1.21-5.11h4.19L175.39,24.26z M171.6,18.36V0.34h9.85v18.04h-9.85V18.36z M177.22,2.95h-1.42v2.58
			h1.42V2.95z M177.22,8.06h-1.42v2.58h1.42V8.06z M177.22,13.17h-1.42v2.56h1.42V13.17z M177.95,24.26l-1.19-5.11h4.19l1.16,5.11
			H177.95z M190.99,7.02V12h4.24v12.26h-12.85V12h3.59V0.05h5.03v4.34h4.71V7h-4.71V7.02z M190.3,14.63h-3v6.99h3V14.63z"/>
		<path d="M203.64,29.84l-0.72-2.03l-0.55,2.03h-4.02l0.9-3.94V5.91h8.8v23.92H203.64z M204.15,21.09h-0.95v5.58l-0.13,0.55h1.11
			v-6.13H204.15z M204.15,8.58h-0.95v3.6h0.95V8.58z M204.15,14.83h-0.95v3.65h0.95V14.83z M217.62,29.84l-1.89-2.09l-1.71,2.09
			h-5.71l4.1-5.03h-3.85v-2.56h4.79v-1.16h-4.19v-9.52h13.12v9.52h-4.19v1.16h5.06v2.56h-5.09l-0.57,0.74h2.31l3.8,4.29H217.62z
			 M221.08,9.78v1.24h-4.56V9.78h-1.63v1.24h-4.64V9.78h-1.71V7.2h1.71V5.63h4.64V7.2h1.63V5.63h4.56V7.2h2.11v2.58H221.08z
			 M217.54,14.02h-3.72v1.11h3.72V14.02z M217.54,17.49h-3.72v1.11h3.72V17.49z"/>
		<path d="M231.6,9.4h0.89v14.84h-5.06V10.77h-1.57L229.45,0h5.28L231.6,9.4z M249.59,11.44v12.82h-7.92l-1.16-2.75h3.99l0.03-9.01
			h-2.23l-4.15,11.78h-5.28l4.1-11.78h-2.09v-1.06h-2.18L236.22,0h5.19l-3,9.7h6.85L242.35,0h5.18l3.48,11.44H249.59z"/>
		<path d="M268.59,19.89v10.04h-8.91l-1.42-2.8h4.93v-7.24h-9.55v-2.8h9.55v-3.07l6.13-5.28h-14.14V5.91h21.31v2.92l-7.89,6.79v1.46
			h9.63v2.8h-9.63V19.89z"/>
	</g>
</g>
</svg>
